<?xml version="1.0" encoding="utf-8"?>
<!-- Generator: Adobe Illustrator 23.1.0, SVG Export Plug-In . SVG Version: 6.00 Build 0)  -->
<svg version="1.1" id="Ebene_1" xmlns="http://www.w3.org/2000/svg" xmlns:xlink="http://www.w3.org/1999/xlink" x="0px" y="0px"
	 viewBox="0 0 191 100" style="enable-background:new 0 0 191 100;" xml:space="preserve">
<style type="text/css">
	.st0{fill:#FFFFFF;}
</style>
<g>
	<g>
		<path class="st0" d="M59.1,91.5c-0.5,0-1,0.1-1.3,0.3l-21-12.1l20.7-12c0.5,0.3,1,0.4,1.5,0.4c1.2,0,2.1-0.6,2.6-1.6
			s0.3-2.2-0.4-3c-0.2-0.2-0.4-0.4-0.6-0.6c0-0.2,0-0.4-0.1-0.6c-0.2-1.2-1.2-2.1-2.4-2.3s-2.3,0.5-2.9,1.5
			c-0.2,0.4-0.3,0.7-0.3,1.1L31,76.3L7.6,62.7c0-0.5-0.2-1.1-0.4-1.5c-0.5-0.8-1.3-1.3-2.2-1.4c-0.9-0.1-1.8,0.3-2.4,1.1
			c-0.3,0.4-0.5,0.9-0.6,1.4c-0.6,0.3-1,0.7-1.3,1.2c-0.4,0.7-0.5,1.5-0.2,2.3c0.3,0.7,0.8,1.3,1.6,1.6c0.7,0.3,1.5,0.3,2.2,0
			c0.1,0,0.1-0.1,0.2-0.1l20.9,12.1l-19,11c-0.6,0.3-1.1,0.7-1.7,1c-0.3-0.1-0.6-0.3-1-0.3c-1-0.2-1.9,0.2-2.6,0.8
			c-0.6,0.7-0.9,1.6-0.7,2.6c0.2,0.7,0.5,1.2,1.1,1.6c0,0.2,0,0.5,0.1,0.8c0.2,0.8,0.6,1.5,1.3,1.9s1.5,0.5,2.2,0.3
			c1-0.3,1.7-1.1,2-2.2c0-0.1,0.1-0.3,0.1-0.4c0.1-0.1,0.3-0.2,0.4-0.2L31,82.9l23.7,13.7c0,0.2,0,0.5,0.1,0.7
			c0.3,1.3,1.5,2.2,2.8,2.2l0,0c1.4,0,2.5-1,2.8-2.4c0-0.1,0-0.2,0-0.3c0.3-0.2,0.6-0.4,0.9-0.8c0.6-0.9,0.7-1.9,0.3-2.9
			C61.1,92.1,60.2,91.5,59.1,91.5z M3,95.4l0.1-0.2l0,0L3,95.4L3,95.4z"/>
		<path class="st0" d="M30.9,59.8L30.9,59.8c8,0,15.4-3.1,21-8.7s8.7-13,8.7-20.9s-3-15.4-8.6-21S38.9,0.5,31,0.5l0,0
			C14.6,0.5,1.3,13.8,1.3,30.1c0,8,3.1,15.5,8.7,21.1S23.1,59.8,30.9,59.8z M5.8,30.1c0-6.7,2.7-13,7.4-17.7C18,7.6,24.3,5,31,5h0.1
			c6.7,0,13,2.7,17.8,7.5c4.7,4.8,7.3,11.1,7.3,17.7l0,0c0,6.7-2.6,13-7.3,17.7C44,52.7,37.7,55.3,31,55.3l0,0
			c-6.7,0-13-2.7-17.8-7.4C8.4,43.1,5.8,36.8,5.8,30.1z"/>
		<path class="st0" d="M33.6,27.1c-0.2,0.2-0.5,0.5-0.7,0.9c-0.5,0.9-0.3,1.9,0.4,2.6c0.4,0.4,1,0.6,1.6,0.6c0.3,0,0.7-0.1,1-0.2
			c0.2-0.1,0.4-0.2,0.6-0.4c0.1-0.1,0.3-0.2,0.5-0.5l4.4-4.4l4.5,4.5c0.3,0.2,0.5,0.5,0.9,0.7c0.7,0.4,1.5,0.4,2.2,0
			c0.6-0.4,1-1.1,1.1-1.8c0-0.6-0.2-1.1-0.6-1.6c-0.1-0.2-0.3-0.3-0.5-0.5l-4.4-4.4l4.5-4.5c0.2-0.2,0.5-0.5,0.7-0.9
			c0.5-0.9,0.4-2-0.4-2.7c-0.7-0.7-1.8-0.8-2.7-0.3c-0.2,0.1-0.4,0.3-0.6,0.4c-0.1,0.1-0.2,0.2-0.5,0.4l-4.3,4.3l-1.1-1.1
			c-1.1-1.1-2.2-2.2-3.4-3.4c-0.3-0.3-0.6-0.6-1-0.7c-0.8-0.4-1.9-0.3-2.5,0.4c-0.7,0.6-0.8,1.6-0.5,2.5c0.1,0.2,0.2,0.4,0.4,0.7
			c0.1,0.1,0.2,0.3,0.5,0.5l4.4,4.4L36.7,24C35.7,25,34.6,26.1,33.6,27.1z"/>
		<path class="st0" d="M28.7,39h-2.5v-0.1c-0.1-0.3-0.1-0.7-0.3-1c-0.4-0.7-1.1-1.1-1.8-1.1c-0.7,0-1.5,0.4-1.9,1.1
			c-0.2,0.3-0.3,0.7-0.4,1.2h-1.4c-0.1,0-0.4,0-0.6,0c-1.1,0.2-2,1.1-2,2.2c0,1.1,0.7,2,1.8,2.2c0.3,0.1,0.5,0.1,0.8,0.1h1.4
			c0,0.1,0,0.2,0,0.2c0.2,1.1,1,1.9,2.1,2H24c1,0,1.9-0.7,2.2-1.7c0-0.2,0.1-0.3,0.1-0.5c0.8,0,1.8,0,2.5,0c0,0.1,0,0.3,0,0.4
			c0.2,1,1.1,1.8,2.1,1.8s1.9-0.7,2.2-1.7c0-0.1,0.1-0.3,0.1-0.5c0.1,0,0.1,0,0.2,0c0.2,0,0.3,0,0.5,0c0.5,0,0.9,0,1.4,0
			c0.2,0,0.3,0,0.5,0h0.1c0,0.1,0,0.2,0,0.3c0.2,1.1,1,1.9,2.1,2c1.1,0,2-0.6,2.3-1.7c0-0.2,0.1-0.3,0.1-0.5h0.3c0.4,0,0.7,0,1.1,0
			c0.3,0,0.6,0,0.9-0.1c0.9-0.3,1.6-1.1,1.7-2c0.1-1-0.5-1.9-1.5-2.2C42.4,39,42,39,41.8,39c-0.4,0-0.7,0-1.1,0h-0.4
			c0-0.5-0.2-0.9-0.4-1.2c-0.4-0.6-1.1-1-1.8-1c-0.7-0.1-1.4,0.3-1.8,0.9c-0.3,0.4-0.4,0.8-0.5,1.3c-0.4,0-0.7,0-1.1,0h-0.2
			c-0.2,0-0.5,0-0.7,0s-0.4,0-0.6,0c0-0.1,0-0.3,0-0.4c-0.2-1.1-1.1-1.9-2.2-1.9c-1.1,0-2,0.8-2.2,1.9C28.7,38.8,28.7,38.9,28.7,39z
			"/>
		<path class="st0" d="M20.6,31.1L20.6,31.1c2.2,0,4.5-0.9,6.1-2.5s2.5-3.7,2.5-6s-0.9-4.5-2.5-6.1s-3.8-2.5-6-2.5h-0.1
			c-2.2,0-4.3,0.9-6,2.5c-1.6,1.6-2.5,3.8-2.5,6.1C12,27.2,15.8,31.1,20.6,31.1z M16.5,22.5c0-1.4,0.6-2.3,1.2-2.9
			c0.7-0.7,1.8-1.1,2.7-1.1h0.1l0,0c1.1,0,2,0.4,2.8,1.1c0.8,0.8,1.2,1.8,1.2,2.9c0,2.2-1.9,4-4,4l0,0c-1,0-2.1-0.5-2.9-1.2
			C17.2,24.8,16.5,23.9,16.5,22.5z"/>
	</g>
	<g>
		<g>
			<path class="st0" d="M90.8,42.8c-2.2,0-3.9-0.6-5.2-1.9c-1.5-1.4-2.3-3.4-2.3-5.9v-4.1h5V35c0,1.1,0.2,1.8,0.7,2.3
				c0.4,0.4,1,0.5,1.9,0.5s1.5-0.2,1.9-0.5c0.5-0.4,0.7-1.1,0.7-2.3v-2c0-1.4-0.6-2.6-1.7-3.6c-0.2-0.2-0.9-0.6-1.9-1.2
				c-1.4-0.8-2.5-1.4-3.1-2c-1.1-1-1.9-2.1-2.5-3.3c-0.6-1.2-0.9-2.6-0.9-4v-0.8c0-2.5,0.8-4.5,2.3-5.9c1.3-1.2,3.1-1.9,5.2-1.9
				c2.2,0,3.9,0.6,5.2,1.9c1.5,1.4,2.3,3.4,2.3,5.9v2.8h-5v-2.8c0-1.1-0.2-1.9-0.7-2.3c-0.4-0.4-1-0.5-1.9-0.5
				c-0.8,0-1.5,0.2-1.9,0.5c-0.5,0.4-0.7,1.2-0.7,2.3v0.8c0,1.4,0.6,2.6,1.7,3.6c0.3,0.2,0.9,0.6,1.8,1.1c1.6,0.8,2.7,1.5,3.3,2.1
				c2.2,2,3.3,4.4,3.3,7.3v2c0,2.5-0.8,4.5-2.3,5.9C94.7,42.2,92.9,42.8,90.8,42.8z"/>
			<path class="st0" d="M107,42.4h-5V10.7h7.5c2.1,0,3.9,0.6,5.2,1.9c1.5,1.4,2.3,3.3,2.3,5.9V22c0,2.6-0.8,4.5-2.3,5.9
				c-1.3,1.2-3.1,1.9-5.2,1.9H107V42.4z M107,24.8h2.5c0.8,0,1.5-0.2,1.9-0.5c0.5-0.4,0.7-1.2,0.7-2.3v-3.4c0-1.1-0.2-1.8-0.7-2.3
				c-0.4-0.4-1-0.5-1.9-0.5H107V24.8z"/>
			<path class="st0" d="M127.9,42.8c-2.2,0-3.9-0.6-5.2-1.9c-1.5-1.4-2.3-3.4-2.3-5.9V18.2c0-2.5,0.8-4.5,2.3-5.9
				c1.3-1.2,3.1-1.9,5.2-1.9s3.9,0.6,5.2,1.9c1.5,1.4,2.3,3.4,2.3,5.9V35c0,2.5-0.8,4.5-2.3,5.9C131.8,42.2,130.1,42.8,127.9,42.8z
				 M127.9,15.4c-0.8,0-1.5,0.2-1.9,0.5c-0.5,0.4-0.7,1.2-0.7,2.3V35c0,1.1,0.2,1.8,0.7,2.3c0.4,0.4,1,0.5,1.9,0.5s1.5-0.2,1.9-0.5
				c0.5-0.4,0.7-1.1,0.7-2.3V18.2c0-1.1-0.2-1.9-0.7-2.3C129.4,15.5,128.8,15.4,127.9,15.4z"/>
			<path class="st0" d="M154.4,42.4h-5.1l-2.6-12.7h-2.3v12.7h-5V10.7h7.5c2.1,0,3.9,0.6,5.2,1.9c1.5,1.4,2.3,3.3,2.3,5.9v3.4
				c0,2.6-0.8,4.5-2.3,5.9c-0.2,0.2-0.5,0.4-0.7,0.6L154.4,42.4z M149.6,18.5c0-1.1-0.2-1.8-0.7-2.3c-0.4-0.4-1-0.5-1.9-0.5h-2.5v9
				h2.5c0.8,0,1.5-0.2,1.9-0.5c0.5-0.4,0.7-1.2,0.7-2.3V18.5z"/>
			<path class="st0" d="M172.1,10.7v5H167v26.7h-5V15.7h-5v-5H172.1z"/>
			<path class="st0" d="M182.1,42.8c-2.2,0-3.9-0.6-5.2-1.9c-1.5-1.4-2.3-3.4-2.3-5.9v-4.1h5V35c0,1.1,0.2,1.8,0.7,2.3
				c0.4,0.4,1,0.5,1.9,0.5s1.5-0.2,1.9-0.5c0.5-0.4,0.7-1.1,0.7-2.3v-2c0-1.4-0.6-2.6-1.7-3.6c-0.2-0.2-0.9-0.6-1.9-1.2
				c-1.4-0.8-2.5-1.4-3.1-2c-1.1-1-1.9-2.1-2.5-3.3c-0.6-1.2-0.9-2.6-0.9-4v-0.8c0-2.5,0.8-4.5,2.3-5.9c1.3-1.2,3.1-1.9,5.2-1.9
				c2.2,0,3.9,0.6,5.2,1.9c1.5,1.4,2.3,3.4,2.3,5.9v2.8h-5v-2.8c0-1.1-0.2-1.9-0.7-2.3c-0.4-0.4-1-0.5-1.9-0.5
				c-0.8,0-1.5,0.2-1.9,0.5c-0.5,0.4-0.7,1.2-0.7,2.3v0.8c0,1.4,0.6,2.6,1.7,3.6c0.3,0.2,0.9,0.6,1.8,1.1c1.6,0.8,2.7,1.5,3.3,2.1
				c2.2,2,3.3,4.4,3.3,7.3v2c0,2.5-0.8,4.5-2.3,5.9C186,42.2,184.2,42.8,182.1,42.8z"/>
		</g>
		<g>
			<path class="st0" d="M92,89.7h-7.5V58h6.8c2.1,0,3.9,0.6,5.2,1.8c0.8,0.7,1.4,1.5,1.7,2.5c0.4,1,0.6,2.1,0.6,3.4v2.9
				c0,2.1-0.6,3.8-1.8,4.9c1.7,1.2,2.5,3.1,2.5,5.7v2.9c0,1.3-0.2,2.4-0.6,3.3c-0.4,1-0.9,1.8-1.7,2.5C95.9,89.1,94.2,89.7,92,89.7z
				 M89.5,71.4h1.9c0.8,0,1.5-0.2,1.9-0.5c0.5-0.5,0.7-1.2,0.7-2.3v-2.9c0-1-0.2-1.8-0.6-2.2c-0.4-0.3-1-0.5-1.9-0.5h-1.9L89.5,71.4
				L89.5,71.4z M89.5,84.7H92c0.9,0,1.5-0.2,1.9-0.5c0.4-0.4,0.6-1.1,0.6-2.1v-2.9c0-1.1-0.2-1.8-0.7-2.3c-0.4-0.4-1-0.5-1.9-0.5
				h-2.5L89.5,84.7L89.5,84.7z"/>
			<path class="st0" d="M141,89.7l-0.9-5h-5.7l-0.9,5h-5.1l6.4-31.8h5l6.4,31.8H141z M135.2,79.7h4l-2-11.4L135.2,79.7z"/>
			<path class="st0" d="M190.6,89.7h-5.1L183,77h-2.3v12.7h-5V58h7.5c2.1,0,3.9,0.6,5.3,1.9c1.5,1.4,2.3,3.4,2.3,5.9v3.4
				c0,2.6-0.8,4.6-2.3,5.9c-0.2,0.2-0.5,0.4-0.7,0.6L190.6,89.7z M185.8,65.8c0-1.1-0.2-1.8-0.7-2.3c-0.4-0.4-1-0.5-1.9-0.5h-2.5v9
				h2.5c0.8,0,1.5-0.2,1.9-0.5c0.5-0.4,0.7-1.2,0.7-2.3V65.8z"/>
		</g>
	</g>
</g>
</svg>
