<?xml version="1.0" encoding="utf-8"?>
<!-- Generator: Adobe Illustrator 23.1.0, SVG Export Plug-In . SVG Version: 6.00 Build 0)  -->
<svg version="1.1" id="Ebene_1" xmlns="http://www.w3.org/2000/svg" xmlns:xlink="http://www.w3.org/1999/xlink" x="0px" y="0px"
	 viewBox="0 0 80 80" style="enable-background:new 0 0 80 80;" xml:space="preserve">
<style type="text/css">
	.st0{fill:#1D1926;}
</style>
<g id="Ball_4_-_Shapes_1_">
	<path id="Ball_1_" class="st0" d="M40,0C17.9,0,0,17.9,0,40c0,22.1,17.9,40,40,40s40-17.9,40-40C80,17.9,62.1,0,40,0z M76.6,33.2
		l-4.8-3.5l1.8-5.7C75,26.9,76,30,76.6,33.2z M72.9,22.6l-2.2,6.9L54,35.6l-13.5-9.8V7.6l5.8-4.2C57.9,5.3,67.6,12.6,72.9,22.6z
		 M48.2,52.1H31.8l-5.1-15.6L40,26.8l13.3,9.6L48.2,52.1z M44.8,3.1L40,6.6l-4.8-3.5c1.6-0.2,3.2-0.3,4.8-0.3S43.3,2.9,44.8,3.1z
		 M33.6,3.3l5.8,4.2v18.3L26,35.6L9.3,29.5l-2.2-6.9C12.4,12.6,22.1,5.3,33.6,3.3z M6.4,24l1.8,5.7l-4.8,3.5C4,30,5,26.9,6.4,24z
		 M3.1,34.7L9,30.5l16.7,6.2l5.1,15.8L20.5,65.9h-7.2C6.8,59.2,2.8,50.1,2.8,40C2.8,38.2,2.9,36.5,3.1,34.7z M20.4,67l1.8,5.7
		c-2.8-1.6-5.5-3.5-7.8-5.7H20.4z M23.6,73.4l-2.2-6.8l10.3-13.4h16.7l10.3,13.4l-2.2,6.9c-4.9,2.4-10.5,3.8-16.4,3.8
		C34.1,77.2,28.6,75.9,23.6,73.4z M59.6,67h6c-2.3,2.2-5,4.1-7.8,5.7L59.6,67z M66.7,65.9h-7.2L49.2,52.5l5.1-15.8L71,30.5l5.8,4.2
		c0.2,1.7,0.4,3.5,0.4,5.3C77.2,50.1,73.2,59.2,66.7,65.9z"/>
	<g id="Group_5_1_">
		<path id="Shape_9_" class="st0" d="M22.1,10.8c-0.1,0-0.2,0-0.3,0.1c-1,0.7-2.8,2-3.7,2.7c-0.2,0.1-0.3,0.4-0.2,0.7
			c1,2.5,1.9,6.7,1,10.1c-0.1,0.2,0,0.5,0.2,0.6c0.2,0.1,0.2,0.1,0.3,0.2l0.1,0.1c0.1,0,0.2,0.1,0.3,0.1c0.2,0,0.3-0.1,0.5-0.2
			c3-4.4,6.5-6.9,11.2-8.2c0.3-0.1,0.5-0.4,0.4-0.6c0-0.2,0-0.3-0.1-0.5c-0.1-0.2-0.3-0.4-0.5-0.4c-3.9-0.2-8-3.5-8.8-4.4
			C22.4,10.9,22.2,10.8,22.1,10.8L22.1,10.8z"/>
		<path id="Line_3_9_" class="st0" d="M36.7,13.4C36.6,13.4,36.6,13.4,36.7,13.4c-4.2-0.5-8.2-2.1-11.5-4.5C24.8,8.7,24.8,8.3,25,8
			c0.2-0.3,0.6-0.4,0.9-0.1c3.1,2.3,6.9,3.7,10.8,4.2c0.4,0,0.6,0.4,0.6,0.7C37.3,13.2,37,13.4,36.7,13.4z"/>
		<path id="Line_2_9_" class="st0" d="M15.1,29.4c0,0-0.1,0-0.1,0c-0.4-0.1-0.6-0.4-0.5-0.8c0.9-4.2,0.6-8.4-0.8-12.4
			c-0.1-0.3,0.1-0.7,0.4-0.8c0.3-0.1,0.7,0.1,0.8,0.4c1.4,4.2,1.7,8.7,0.8,13.1C15.7,29.1,15.4,29.4,15.1,29.4z"/>
		<path id="Line_1_9_" class="st0" d="M20.8,31.4c-0.1,0-0.2,0-0.3-0.1c-0.3-0.2-0.5-0.5-0.3-0.9c3.1-6.7,9.3-11.2,16.6-12.3
			c0.4-0.1,0.7,0.2,0.7,0.6c0.1,0.4-0.2,0.7-0.6,0.7c-6.8,0.9-12.6,5.2-15.6,11.5C21.3,31.2,21,31.4,20.8,31.4z"/>
	</g>
	<g id="Group_4_1_">
		<path id="Shape_8_" class="st0" d="M14.4,40.4c-0.2,0-0.4,0.1-0.5,0.3c-1.4,3.7-5.8,6.5-6.8,7c-0.3,0.1-0.4,0.4-0.3,0.7l1.4,4.3
			c0.1,0.2,0.3,0.4,0.5,0.4c0,0,0,0,0,0c0.4,0,0.8,0,1.2,0c1.6,0,5.6,0.2,8.7,2.2c0.1,0.1,0.2,0.1,0.3,0.1c0.1,0,0.2,0,0.3-0.1
			c0.2-0.1,0.2-0.2,0.3-0.2l0.1-0.1c0.2-0.2,0.2-0.5,0.1-0.7c-3.3-4.3-4.6-8.3-4.4-13.1c0-0.3-0.2-0.5-0.5-0.6
			C14.7,40.4,14.6,40.4,14.4,40.4C14.4,40.4,14.4,40.4,14.4,40.4L14.4,40.4z"/>
		<path id="Line_3_8_" class="st0" d="M5.5,44.7c-0.2,0-0.4-0.1-0.5-0.3c-0.2-0.3-0.2-0.7,0.1-0.9c3.1-2.3,5.7-5.4,7.4-9
			c0.2-0.3,0.5-0.5,0.9-0.3c0.3,0.2,0.5,0.5,0.3,0.9c-1.8,3.8-4.5,7.1-7.8,9.5C5.8,44.6,5.6,44.7,5.5,44.7z"/>
		<path id="Line_2_8_" class="st0" d="M21.6,60.8c-0.1,0-0.2,0-0.3-0.1c-3.7-2.1-7.8-3.2-12-3.1c-0.4,0-0.7-0.3-0.7-0.6
			c0-0.4,0.3-0.7,0.6-0.7c4.4-0.1,8.8,1.1,12.7,3.3c0.3,0.2,0.4,0.6,0.2,0.9C22,60.7,21.8,60.8,21.6,60.8z"/>
		<path id="Line_1_8_" class="st0" d="M25.2,56.1c-0.2,0-0.3-0.1-0.5-0.2c-5.4-5-7.8-12.3-6.5-19.6c0.1-0.4,0.4-0.6,0.8-0.5
			c0.4,0.1,0.6,0.4,0.5,0.8c-1.2,6.8,1.1,13.6,6.1,18.4c0.3,0.3,0.3,0.7,0,0.9C25.6,56,25.4,56.1,25.2,56.1z"/>
	</g>
	<g id="Group_3_1_">
		<path id="Shape_7_" class="st0" d="M47.4,63.7c-0.1,0-0.1,0-0.2,0c-2.6,0.9-5,1.4-7.2,1.4c-2.2,0-4.4-0.4-6.6-1.3
			c-0.1,0-0.1,0-0.2,0c-0.2,0-0.4,0.1-0.5,0.3c-0.1,0.1-0.2,0.2-0.2,0.4c-0.1,0.2,0,0.5,0.2,0.6c3,2.5,4.4,7.5,4.5,8.7
			c0,0.3,0.3,0.5,0.5,0.5h4.6c0.3,0,0.5-0.2,0.5-0.4c0.6-2.6,2.4-6.5,5.1-8.7c0.2-0.1,0.3-0.4,0.2-0.6c-0.1-0.2-0.1-0.3-0.1-0.4
			L47.9,64C47.8,63.8,47.6,63.7,47.4,63.7L47.4,63.7z"/>
		<path id="Line_3_7_" class="st0" d="M33.1,74.7c-0.3,0-0.5-0.2-0.6-0.5c-1.2-3.7-3.4-7.1-6.3-9.8c-0.3-0.2-0.3-0.7,0-0.9
			c0.2-0.3,0.7-0.3,0.9,0c3.1,2.9,5.4,6.4,6.6,10.3c0.1,0.3-0.1,0.7-0.4,0.8C33.3,74.7,33.2,74.7,33.1,74.7z"/>
		<path id="Line_2_7_" class="st0" d="M46.7,75.2c-0.1,0-0.1,0-0.2,0c-0.3-0.1-0.5-0.5-0.4-0.8c1.3-4.2,3.7-8,7-11
			c0.3-0.2,0.7-0.2,0.9,0c0.2,0.3,0.2,0.7,0,0.9c-3.1,2.9-5.4,6.5-6.7,10.4C47.2,75,46.9,75.2,46.7,75.2z"/>
		<path id="Line_1_7_" class="st0" d="M39.9,62.1c-3.5,0-7-0.8-10.2-2.5c-0.3-0.2-0.4-0.6-0.3-0.9c0.2-0.3,0.6-0.4,0.9-0.3
			c6.1,3.2,13.3,3.2,19.4-0.2c0.3-0.2,0.7-0.1,0.9,0.3c0.2,0.3,0.1,0.7-0.3,0.9C47.1,61.2,43.5,62.1,39.9,62.1z"/>
	</g>
	<g id="Group_2_1_">
		<path id="Shape_6_" class="st0" d="M65.8,39.9C65.8,39.9,65.8,39.9,65.8,39.9c-0.2,0-0.3,0-0.4,0l-0.1,0c-0.3,0-0.5,0.3-0.5,0.6
			c0.1,5.4-1.2,9.4-4.2,13.2c-0.2,0.2-0.2,0.5,0,0.7c0.1,0.1,0.2,0.2,0.3,0.3c0.1,0.1,0.2,0.1,0.3,0.1c0.1,0,0.2,0,0.3-0.1
			C64,53.2,67.3,53,69,53c1.1,0,1.9,0.1,2.2,0.2c0,0,0.1,0,0.1,0c0.2,0,0.4-0.1,0.5-0.4l0.3-0.9l1.1-3.4c0.1-0.2,0-0.5-0.2-0.6
			c-2.3-1.4-5.5-4.3-6.7-7.6C66.2,40,66,39.9,65.8,39.9L65.8,39.9z"/>
		<path id="Line_3_6_" class="st0" d="M58.7,60.7c-0.2,0-0.5-0.1-0.6-0.3c-0.2-0.3-0.1-0.7,0.3-0.9c3.7-2,7.8-3.1,11.9-3.1h0
			c0.4,0,0.7,0.3,0.7,0.7c0,0.4-0.3,0.7-0.7,0.7c-3.9,0-7.8,1-11.2,2.9C58.9,60.7,58.8,60.7,58.7,60.7z"/>
		<path id="Line_2_6_" class="st0" d="M74.9,45c-0.1,0-0.3,0-0.4-0.1c-3.6-2.5-6.5-6-8.3-10.1c-0.2-0.3,0-0.7,0.3-0.9
			c0.3-0.2,0.7,0,0.9,0.3c1.7,3.9,4.5,7.2,7.9,9.6c0.3,0.2,0.4,0.6,0.2,0.9C75.3,44.9,75.1,45,74.9,45z"/>
		<path id="Line_1_6_" class="st0" d="M55,55.9c-0.2,0-0.3-0.1-0.5-0.2c-0.3-0.3-0.2-0.7,0-0.9c5-4.8,7.1-11.7,5.8-18.5
			c-0.1-0.4,0.2-0.7,0.5-0.8c0.4-0.1,0.7,0.2,0.8,0.5c1.4,7.2-0.9,14.6-6.2,19.7C55.3,55.9,55.2,55.9,55,55.9z"/>
	</g>
	<g id="Group_1_2_">
		<path id="Shape_5_" class="st0" d="M58,10.9c-0.1,0-0.3,0-0.4,0.1c-2.1,1.8-5.8,3.9-9.3,4.1c-0.2,0-0.4,0.2-0.5,0.4
			c-0.1,0.2-0.1,0.3-0.1,0.4l0,0.1c-0.1,0.3,0.1,0.6,0.4,0.6c5.1,1.5,8.6,4,11.3,8.1c0.1,0.2,0.3,0.2,0.5,0.2c0.1,0,0.2,0,0.3-0.1
			c0.2,0,0.3-0.1,0.4-0.2c0.2-0.1,0.3-0.4,0.2-0.6c-1-3.8,0.9-8.7,1.4-9.7c0.1-0.2,0.1-0.6-0.1-0.7l-0.7-0.5l-3-2.1
			C58.2,10.9,58.1,10.9,58,10.9L58,10.9z"/>
		<path id="Line_3_5_" class="st0" d="M64.9,29.1c-0.3,0-0.6-0.2-0.7-0.5c-0.8-4.1-0.5-8.4,0.7-12.3c0.1-0.3,0.5-0.5,0.8-0.4
			c0.3,0.1,0.5,0.5,0.4,0.8c-1.2,3.7-1.4,7.7-0.7,11.6c0.1,0.4-0.2,0.7-0.5,0.8C65,29.1,64.9,29.1,64.9,29.1z"/>
		<path id="Line_2_5_" class="st0" d="M43.1,13.5c-0.3,0-0.6-0.3-0.7-0.6c0-0.4,0.2-0.7,0.6-0.7c4.2-0.5,8.2-2,11.5-4.5
			c0.3-0.2,0.7-0.2,0.9,0.1c0.2,0.3,0.2,0.7-0.1,0.9C51.8,11.3,47.6,13,43.1,13.5C43.1,13.5,43.1,13.5,43.1,13.5z"/>
		<path id="Line_1_5_" class="st0" d="M59.2,31.1c-0.2,0-0.5-0.1-0.6-0.4c-3-6.2-8.9-10.4-15.8-11.3c-0.4,0-0.6-0.4-0.6-0.7
			c0-0.4,0.4-0.6,0.7-0.6c7.3,0.9,13.6,5.4,16.8,12c0.2,0.3,0,0.7-0.3,0.9C59.3,31.1,59.3,31.1,59.2,31.1z"/>
	</g>
</g>
</svg>
