<?xml version="1.0" encoding="utf-8"?>
<!-- Generator: Adobe Illustrator 23.1.0, SVG Export Plug-In . SVG Version: 6.00 Build 0)  -->
<svg version="1.1" id="Ebene_1" xmlns="http://www.w3.org/2000/svg" xmlns:xlink="http://www.w3.org/1999/xlink" x="0px" y="0px"
	 viewBox="0 0 80 80" style="enable-background:new 0 0 80 80;" xml:space="preserve">
<style type="text/css">
	.st0{fill:#1D1926;}
</style>
<g>
	<path class="st0" d="M54.7,4.7c-1.5,0-2.9,0.6-3.9,1.7c-1-1-2.4-1.7-3.9-1.7c-1,0-1.9,0.3-2.7,0.7C43.2,2.3,40.3,0,36.9,0
		c-3.3,0-6.1,2.1-7.1,5.1c-1-0.7-2.3-1.2-3.7-1.2c-3.4,0-6.2,2.8-6.2,6.2c0,2.2,1.1,4.2,2.9,5.3c-0.1,2.7-0.4,9.7,0.1,15.4
		c0.1,1.9,0.8,5,1.7,8.9c2,8.7,4.9,21.7,3.2,29.5c-0.3,1.3-1.3,4.9-2.2,6.4c-0.4,0.6-0.3,1.4,0.3,1.9c0.5,0.4,3.3,2.5,12.7,2.5
		l0.8,0l0.9,0c9.4,0,12.2-2.1,12.7-2.5c0.5-0.5,0.6-1.3,0.3-1.9c-0.9-1.5-1.9-5.1-2.2-6.4c-1.7-7.8,1.2-20.8,3.2-29.5
		c0.9-3.9,1.6-7,1.7-8.9c0,0,0,0,0,0c2.5-0.5,4.3-2.7,4.3-5.3V10.1C60.1,7.1,57.7,4.7,54.7,4.7z M40.2,77l-0.9,0l-0.8,0
		c-5.4,0-8.3-0.8-9.7-1.3c0.8-1.8,1.4-4.2,1.7-5.3c3,0.8,5.9,1.1,8.5,1.1c4,0,7.3-0.7,9.1-1.1c0.3,1.1,0.9,3.4,1.7,5.3
		C48.5,76.2,45.6,77,40.2,77z M52.8,30.5c-0.1,1.7-0.8,4.8-1.7,8.5c-1.9,8.6-4.5,20.1-3.5,28.5c-2.7,0.7-9.5,2-16.6,0
		c1-8.3-1.6-19.9-3.5-28.5c-0.8-3.6-1.5-6.8-1.7-8.5c-0.4-5-0.2-11.2-0.1-14.2c0.1,0,0.2,0,0.3,0c0,0,0,0,0,0
		c2.8,0.7,8,1.7,13.2,1.7c0.7,0,1.4,0,2.2-0.1v4.9c0,2.7,2.2,4.9,4.9,4.9c2.7,0,4.9-2.2,4.9-4.9v-6.3c0.6-0.1,1.1-0.2,1.5-0.3
		C53,19.3,53.2,25.5,52.8,30.5z M57.1,25.4c0,0.9-0.5,1.6-1.2,2.1c0.2-6.3-0.2-12.9-0.2-13.2c0-0.5-0.3-0.9-0.6-1.1
		c-0.4-0.3-0.8-0.3-1.3-0.2c0,0-1.7,0.5-4.3,1c-0.7,0.1-1.2,0.8-1.2,1.5v7.5c0,1.1-0.9,1.9-1.9,1.9s-1.9-0.9-1.9-1.9v-6.5
		c0-0.4-0.2-0.8-0.5-1.1c-0.3-0.3-0.7-0.4-1.1-0.4c-1.3,0.1-2.4,0.2-3.6,0.2c-7.1,0-14.5-2.1-14.6-2.1c-0.1,0-0.2,0-0.2,0
		c-1-0.6-1.7-1.6-1.7-2.8c0-1.8,1.4-3.2,3.2-3.2c1.7,0,3,1.3,3.2,2.9c0.1,0.8,0.7,1.4,1.5,1.4l0.4,0c0.5,0,0.9-0.3,1.2-0.7
		c0.3-0.4,0.3-0.9,0.2-1.4c-0.2-0.6-0.3-1.1-0.3-1.6c0-2.5,2-4.6,4.6-4.6c2.5,0,4.6,2,4.6,4.6c0,0.4-0.1,0.8-0.2,1.3
		c-0.1,0.5-0.1,1,0.2,1.3c0.3,0.4,0.8,0.6,1.2,0.6l0.4,0c0.7,0,1.3-0.5,1.4-1.2c0.2-1.1,1.2-1.9,2.4-1.9c1.2,0,2.2,0.8,2.4,2
		c0.1,0.7,0.8,1.2,1.5,1.2c0.8,0.1,1.5-0.5,1.6-1.2c0.2-1.2,1.2-2,2.4-2c1.3,0,2.4,1.1,2.4,2.4V25.4z"/>
	<path class="st0" d="M39.3,33.1c-4.8,0-8.7,3.9-8.7,8.7c0,4.8,3.9,8.7,8.7,8.7c4.8,0,8.7-3.9,8.7-8.7C48,37,44.1,33.1,39.3,33.1z
		 M39.3,47.4c-3.1,0-5.7-2.5-5.7-5.7c0-3.1,2.5-5.7,5.7-5.7c3.1,0,5.7,2.5,5.7,5.7C45,44.9,42.5,47.4,39.3,47.4z"/>
</g>
</svg>
