<?xml version="1.0" encoding="utf-8"?>
<!-- Generator: Adobe Illustrator 23.1.0, SVG Export Plug-In . SVG Version: 6.00 Build 0)  -->
<svg version="1.1" id="Ebene_1" xmlns="http://www.w3.org/2000/svg" xmlns:xlink="http://www.w3.org/1999/xlink" x="0px" y="0px"
	 viewBox="0 0 80 80" style="enable-background:new 0 0 80 80;" xml:space="preserve">
<style type="text/css">
	.st0{fill:#1D1926;}
</style>
<g id="Shirt_Back_1_">
	<g>
		<path id="Shirt_9_" class="st0" d="M79.7,29.1c-7.1-7.1-9.4-10.2-13.2-15.4l-0.1-0.1c-2.6-3.5-5.1-4.3-8.2-4.4
			c-1.4-0.1-3.8-0.1-5.3-0.2c0-0.4-0.1-0.9-0.3-1.3c-0.3-0.5-0.9-1.4-1-1.6c-0.9-1.4-1.7-1.7-3.3-1.4c-2.7,0.5-5.2,0.9-8.3,0.9
			c0,0,0,0,0,0c0,0,0,0,0,0c-2.7,0-5.2-0.3-8.5-0.9c-1.6-0.3-2.4,0.1-3.3,1.4c-0.1,0.2-0.7,1-1,1.6c-0.2,0.4-0.3,0.8-0.3,1.2
			c-1.4,0.1-3.9,0.2-5.3,0.3c-3.2,0.1-5.6,0.9-8.2,4.4l-0.1,0.1c-3.8,5.1-6.1,8.2-13.2,15.4c-0.4,0.4-0.4,1,0.1,1.4
			c1.1,1,14.3,12.2,15,12.6c0.3,0.2,1,0,1.3-0.4c1.2-2.2,2.6-4.3,4.1-6.1c0.7,11-0.3,21.9-1.3,33.2c-0.1,1.5-0.4,4.1-0.4,4.6
			c0,0.5,0.3,1,1,1c0.6,0,0,0,0,0c10,0,29.9,0,39.9,0c0,0-0.5,0,0,0c0.7,0,1.1-0.6,1-1.1c-0.1-0.7-0.3-3-0.4-4.5
			c-1-11.3-2-22.2-1.3-33.2c1.5,1.9,2.9,3.9,4.1,6.1c0.2,0.3,0.5,0.5,0.9,0.5c0.1,0,0.3,0,0.4-0.1c0.8-0.3,13.9-11.6,15-12.6
			c0.2-0.2,0.3-0.4,0.3-0.7C80,29.6,79.9,29.3,79.7,29.1z M29.1,8.7c0.2-0.4,0.8-1.3,0.9-1.4c0.4-0.7,0.4-0.7,1.2-0.5
			c3.3,0.6,6,0.9,8.8,0.9c0,0,0,0,0,0h0h0c3.3,0,5.8-0.4,8.7-0.9c0.8-0.2,0.8-0.2,1.2,0.5c0.1,0.2,0.7,1,0.9,1.4
			C51,8.9,51,9,50.9,9.2c-0.2,0.4-0.7,0.8-1,0.9c-3.2,0.8-6.3,1.2-9.9,1.2c-3.9,0-7-0.4-9.9-1.2c-0.3-0.1-0.9-0.5-1-0.9
			C29,9,29,8.8,29.1,8.7z M64.5,40.7c-1.5-2.6-3.2-4.8-5.1-7c0.2-1.6,0.3-3.2,0.6-4.8c0.1-0.5-0.3-1-0.8-1.1c-0.5-0.1-1,0.3-1.1,0.8
			c-2,13.9-0.8,27.2,0.5,41.2c0.1,1.1,0.2,2.3,0.3,3.4H21.2c0.1-1.1,0.2-2.3,0.3-3.4c1.3-14,2.5-27.3,0.5-41.2
			c-0.1-0.5-0.6-0.9-1.1-0.8c-0.5,0.1-0.9,0.6-0.8,1.1c0.2,1.6,0.4,3.2,0.6,4.8c-1.9,2.1-3.6,4.4-5.1,7c-2.5-2-9.7-8.1-13-11
			c6.6-6.7,8.9-9.8,12.6-14.9l0.1-0.1c2.2-2.9,4-3.5,6.7-3.6c1.7-0.1,4.8-0.2,6-0.3c0.5,0.6,1.2,1,1.7,1.1c3,0.8,6.3,1.2,10.4,1.2
			c3.7,0,7-0.4,10.4-1.2c0.5-0.1,1.2-0.5,1.7-1c1.2,0,4.4,0.1,6.1,0.2c2.7,0.1,4.6,0.7,6.7,3.6l0.1,0.1c3.7,5,6,8.1,12.6,14.9
			C74.2,32.7,67,38.8,64.5,40.7z"/>
		<path id="Bottom_Line_9_" class="st0" d="M23.4,69.5c-0.4,0-0.8,0.3-0.8,0.8c0,0.4,0.3,0.8,0.8,0.8h33.2c0.4,0,0.8-0.3,0.8-0.8
			c0-0.4-0.3-0.8-0.8-0.8H23.4z"/>
		<path id="Left_Line_9_" class="st0" d="M6.3,28.2c-0.3-0.3-0.8-0.2-1.1,0.1C5,28.6,5,29,5.4,29.3l9.8,8.4c0.1,0.1,0.3,0.2,0.5,0.2
			c0.2,0,0.4-0.1,0.6-0.3c0.3-0.3,0.2-0.8-0.1-1.1L6.3,28.2z"/>
		<path id="Right_Line_9_" class="st0" d="M63.8,37.6c0.2,0.2,0.4,0.3,0.6,0.3c0.2,0,0.3-0.1,0.5-0.2l9.7-8.2
			c0.3-0.3,0.4-0.7,0.1-1.1c-0.3-0.3-0.7-0.4-1.1-0.1l-9.7,8.2C63.5,36.8,63.5,37.3,63.8,37.6z"/>
		<path id="Zero_9_" class="st0" d="M38.7,30.2v14.4l1.4,1.4h7.5l1.6-1.6V30.1l-1.6-1.6h-7.2L38.7,30.2z M42.1,31.6h3.7v11.3h-3.7
			V31.6z"/>
		<polygon id="One_9_" class="st0" points="30.7,42.9 30.7,46 36.8,46 36.8,42.9 35.5,42.9 35.5,28.5 33.4,28.5 30.8,30.9 32,33.1 
			32,42.9 		"/>
		<path id="Star_9_" class="st0" d="M38.4,21.4L38.1,23c0,0.1,0,0.2,0.1,0.3c0,0,0.1,0.1,0.2,0.1c0,0,0.1,0,0.1,0l1.4-0.7l1.4,0.7
			c0,0,0.1,0,0.1,0c0.1,0,0.1,0,0.2-0.1c0.1-0.1,0.1-0.2,0.1-0.3l-0.3-1.6l1.2-1.1c0.1-0.1,0.1-0.2,0.1-0.3c0-0.1-0.1-0.2-0.2-0.2
			l-1.6-0.2l-0.7-1.4c0-0.1-0.1-0.2-0.3-0.2c-0.1,0-0.2,0.1-0.2,0.2L39,19.6l-1.6,0.2c-0.1,0-0.2,0.1-0.2,0.2c0,0.1,0,0.2,0.1,0.3
			L38.4,21.4z"/>
	</g>
</g>
</svg>
