<?xml version="1.0" encoding="utf-8"?>
<!-- Generator: Adobe Illustrator 23.1.0, SVG Export Plug-In . SVG Version: 6.00 Build 0)  -->
<svg version="1.1" id="Ebene_1" xmlns="http://www.w3.org/2000/svg" xmlns:xlink="http://www.w3.org/1999/xlink" x="0px" y="0px"
	 viewBox="0 0 50 30" style="enable-background:new 0 0 50 30;" xml:space="preserve">
<style type="text/css">
	.st0{fill:#1D1926;}
</style>
<g>
	<path class="st0" d="M6.4,23.7c0-0.4,0.1-0.9,0.1-0.9s-0.1-0.2-0.2-0.4c-0.1-0.2,0-0.1,0-0.2c0,0,0-0.2-0.1-0.4
		c-0.1-0.2-0.4-0.8-0.4-0.8c0,0,0.1-0.2,0.1-0.2l-0.2-0.6c0,0-1.4-1.1-2-1.6c-0.6-0.6-1.7-2.4-1.8-2.4c-0.1,0-0.3,0-0.3,0
		S1.5,16.2,1.4,16c0-0.1-0.2-0.6-0.4-1c-0.2-0.4-0.3-0.8-0.3-0.9c0-0.2,0-0.6,0.1-0.8c0.1-0.2,0.4-0.6,0.4-0.6c0,0-0.1-0.1-0.1-0.1
		s-0.3,0.2-0.6-0.1c-0.3-0.3-0.1-1,0.5-2.4c0.6-1.4,0.8-1.7,1-1.8C2.1,8,2.1,8,2.1,8c0.2,0,0.5,0,0.6,0l0.1-0.1l0.6,0
		c0,0,0.4,0,0.2-1c0,0-0.1-0.3-0.1-0.4c0-0.1,0.1-0.1,0.1-0.2c0.2-0.2,0.2-0.2,0.2-0.7l0.3-0.2l0.2-0.1H1.5c-0.7,0-1.2,0.5-1.2,1.2
		v17c0,0.7,0.6,1.2,1.2,1.2h5.1C6.6,24.7,6.4,24.4,6.4,23.7z"/>
	<polygon class="st0" points="2.6,23.7 1.9,23.7 1.5,21.7 1.5,23.7 1,23.7 1,21.2 1.8,21.2 2.1,22.8 2.1,21.2 2.6,21.2 	"/>
	<path class="st0" d="M4.2,21.9c0,0.2-0.1,0.4-0.4,0.5v0c0.3,0,0.4,0.1,0.4,0.5v0.2c0,0.4-0.2,0.6-0.7,0.6H2.8v-2.5h0.7
		c0.4,0,0.7,0.1,0.7,0.5V21.9z"/>
	<polygon class="st0" points="5.2,23.7 5.1,23 4.8,23 4.8,23.7 4.2,23.7 4.7,21.2 5.4,21.2 5.8,23.7 	"/>
	<path class="st0" d="M3.4,21.6L3.4,21.6l-0.1,0.7h0.1c0.1,0,0.1,0,0.1-0.2v-0.4C3.6,21.6,3.5,21.6,3.4,21.6z"/>
	<path class="st0" d="M3.4,22.5L3.4,22.5l-0.1,0.8h0.1c0.1,0,0.1,0,0.1-0.1v-0.5C3.6,22.5,3.5,22.5,3.4,22.5z"/>
	<polygon class="st0" points="4.9,22.6 5.1,22.6 5,21.6 	"/>
	<path class="st0" d="M7,16.6c-0.8,0-1.5-0.7-1.5-1.5c0-0.6,0.4-1.2,1-1.4c0-0.1,0.1-0.1,0.1-0.1s-0.1-0.2-0.3-0.5
		c-0.2-0.3-0.5-1-0.5-1.2c-0.1-0.2-0.2-1.3-0.3-1.3c0,0-0.1,0-0.2,0.1C5.1,10.7,5,11,4.9,11.2c-0.1,0.1-0.4,1-0.4,1
		c0,0,0.1,0.1,0.1,0.1s0.2,0.1,0.3,0.2c0.1,0.1,0.6,1.9,0.6,1.9l-0.1,0.2c0,0,0,0.2,0.1,0.4c0.1,0.2,0.1,0.6,0.2,0.9
		c0.2,0.6,0.3,1.5,0.3,1.5s0.2,0.4,0.5,0.8c0.2,0.4,0.4,2,0.4,2c0,0,0.3,0.6,0.4,0.8c0,0.2-0.1,0.7-0.1,0.7s0,0.4,0,0.5
		c0,0.1,0,0.2,0.1,0.3c0.1,0.1,0.1,0.3,0.1,0.3c0,0.1,0.3,1.1,0.3,1.3c0,0.1-0.2,0.5-0.3,0.5c0,0-0.2,0.2-0.2,0.2
		c0.7,0,1.2-0.6,1.2-1.2v-7.6C8.1,16.3,7.6,16.6,7,16.6z"/>
	<path class="st0" d="M7.1,5.3H5.2c0,0,0.5,0.3,0.5,0.4c0.1,0.1,0.1,0.2,0,0.4c0,0.2-0.1,0.4-0.1,0.4s-0.1,0.1,0,0.2
		c0,0,0,0.1,0,0.1S5.4,7.2,5.4,7.3c0,0-0.3,0.6-0.4,0.6c0,0-0.1,0.1,0,0.2c0.1,0,0.3,0.2,0.3,0.2l0.1,0l0.3,0.2c0,0,0,0.1,0.2,0.2
		C5.9,8.7,6.2,9,6.4,9.3c0.2,0.2,0.2,0.8,0.2,1.2c0,0.4,0.2,1.3,0.2,1.4c0,0.1,0.3,0.8,0.4,1c0.1,0.2,0.1,0.6,0.1,0.6l0.3,0.3
		c0.3,0.1,0.5,0.3,0.7,0.6V6.5C8.3,5.8,7.8,5.3,7.1,5.3z"/>
	<polygon class="st0" points="24.5,24.7 19,24.7 15.6,9.5 15.6,24.7 12,24.7 12,5.3 18.5,5.3 20.8,17.9 20.9,5.3 24.5,5.3 	"/>
	<path class="st0" d="M36.8,10.7V9.2c0-3-2.6-3.9-5.5-3.9h-5.4v19.4h5.4c3.6,0,5.5-1,5.5-4.3v-1.7c0-3.1-1.1-4-3.5-4.2v-0.1
		C36.3,13.9,36.8,12.6,36.8,10.7z M32.2,21c0,0.8-0.3,0.9-1.1,0.9h-0.6v-6.1h0.6c0.7,0,1.1,0.1,1.1,0.9V21z M32.2,12.2
		c0,0.9-0.3,1.2-1.1,1.2h-0.6V8.1h0.6c0.7,0,1.1,0.3,1.1,1.2V12.2z"/>
	<path class="st0" d="M46.9,5.3h-6.1l-3.5,19.4h4.1l0.7-5.3h2.2l0.5,5.3h4.8L46.9,5.3z M42.6,16.7l0.7-8l0.7,8H42.6z"/>
</g>
</svg>
