<?xml version="1.0" encoding="utf-8"?>
<!-- Generator: Adobe Illustrator 23.1.0, SVG Export Plug-In . SVG Version: 6.00 Build 0)  -->
<svg version="1.1" id="Ebene_1" xmlns="http://www.w3.org/2000/svg" xmlns:xlink="http://www.w3.org/1999/xlink" x="0px" y="0px"
	 viewBox="0 0 100 100" style="enable-background:new 0 0 100 100;" xml:space="preserve">
<style type="text/css">
	.st0{fill:#FFFFFF;}
</style>
<g>
	<path class="st0" d="M50,92.5c-1.4,0-2.7-0.6-3.6-1.7L25,64.8c-9.4-11.5-11.3-26.8-4.8-39.2C25.5,15.4,35.1,8.8,46.3,7.7
		c1.2-0.1,2.5-0.2,3.7-0.2c1.3,0,2.5,0.1,3.7,0.2c11.2,1.1,20.7,7.7,26.1,17.9c6.5,12.3,4.6,27.7-4.8,39.2l-21.4,26
		C52.7,91.9,51.4,92.5,50,92.5z"/>
	<path d="M50,9c1.2,0,2.4,0.1,3.6,0.2c10.7,1.1,19.8,7.3,25,17.1c6.2,11.8,4.4,26.5-4.7,37.5l-21.4,26C51.8,90.6,50.9,91,50,91
		s-1.8-0.4-2.4-1.2l-21.4-26c-9.1-11-10.9-25.7-4.7-37.5c5.2-9.8,14.3-16,25-17.1C47.6,9.1,48.8,9,50,9 M50,6
		c-1.3,0-2.6,0.1-3.9,0.2c-11.7,1.2-21.7,8-27.3,18.7c-6.8,12.9-4.8,28.9,5,40.8l21.4,26c1.2,1.4,2.9,2.2,4.8,2.2s3.6-0.8,4.8-2.2
		l21.4-26c9.8-11.9,11.8-28,5-40.8C75.5,14.2,65.6,7.4,53.9,6.2C52.6,6.1,51.3,6,50,6L50,6z"/>
</g>
<g>
	<g>
		<path d="M40.9,50.5c-0.1,0-0.2,0-0.3,0.1l-5.2-3l5.1-3c0.1,0.1,0.2,0.1,0.4,0.1c0.3,0,0.5-0.1,0.6-0.4c0.1-0.2,0.1-0.5-0.1-0.7
			c0,0-0.1-0.1-0.1-0.1c0,0,0-0.1,0-0.1c0-0.3-0.3-0.5-0.6-0.6c-0.3,0-0.6,0.1-0.7,0.4c0,0.1-0.1,0.2-0.1,0.3L34,46.7l-5.8-3.4
			c0-0.1,0-0.3-0.1-0.4c-0.1-0.2-0.3-0.3-0.5-0.3c-0.2,0-0.4,0.1-0.6,0.3c-0.1,0.1-0.1,0.2-0.1,0.3c-0.1,0.1-0.2,0.2-0.3,0.3
			c-0.1,0.2-0.1,0.4,0,0.6c0.1,0.2,0.2,0.3,0.4,0.4c0.2,0.1,0.4,0.1,0.5,0c0,0,0,0,0,0l5.2,3l-4.7,2.7c-0.1,0.1-0.3,0.2-0.4,0.2
			c-0.1,0-0.1-0.1-0.2-0.1c-0.2,0-0.5,0-0.6,0.2c-0.1,0.2-0.2,0.4-0.2,0.6c0,0.2,0.1,0.3,0.3,0.4c0,0,0,0.1,0,0.2
			c0,0.2,0.1,0.4,0.3,0.5s0.4,0.1,0.5,0.1c0.2-0.1,0.4-0.3,0.5-0.5c0,0,0-0.1,0-0.1c0,0,0.1,0,0.1,0l5.8-3.3l5.9,3.4
			c0,0,0,0.1,0,0.2c0.1,0.3,0.4,0.5,0.7,0.5l0,0c0.3,0,0.6-0.2,0.7-0.6c0,0,0,0,0-0.1c0.1,0,0.1-0.1,0.2-0.2
			c0.1-0.2,0.2-0.5,0.1-0.7C41.4,50.6,41.2,50.5,40.9,50.5z M27,51.4L27,51.4L27,51.4L27,51.4L27,51.4z"/>
		<path d="M33.9,42.6L33.9,42.6c2,0,3.8-0.8,5.2-2.2s2.2-3.2,2.2-5.2s-0.7-3.8-2.1-5.2c-1.4-1.4-3.3-2.2-5.2-2.2l0,0
			c-4.1,0-7.4,3.3-7.4,7.3c0,2,0.8,3.8,2.2,5.2S32,42.6,33.9,42.6z M27.7,35.2c0-1.7,0.7-3.2,1.8-4.4c1.2-1.2,2.8-1.8,4.4-1.8h0
			c1.7,0,3.2,0.7,4.4,1.9c1.2,1.2,1.8,2.8,1.8,4.4l0,0c0,1.7-0.6,3.2-1.8,4.4c-1.2,1.2-2.8,1.8-4.4,1.8l0,0c-1.7,0-3.2-0.7-4.4-1.8
			C28.4,38.4,27.7,36.9,27.7,35.2z"/>
		<path d="M34.6,34.5c0,0-0.1,0.1-0.2,0.2c-0.1,0.2-0.1,0.5,0.1,0.6c0.1,0.1,0.2,0.1,0.4,0.1c0.1,0,0.2,0,0.2,0c0,0,0.1,0,0.1-0.1
			c0,0,0.1,0,0.1-0.1l1.1-1.1l1.1,1.1c0.1,0,0.1,0.1,0.2,0.2c0.2,0.1,0.4,0.1,0.5,0c0.1-0.1,0.2-0.3,0.3-0.4c0-0.1,0-0.3-0.1-0.4
			c0,0-0.1-0.1-0.1-0.1l-1.1-1.1l1.1-1.1c0,0,0.1-0.1,0.2-0.2c0.1-0.2,0.1-0.5-0.1-0.7c-0.2-0.2-0.4-0.2-0.7-0.1
			c0,0-0.1,0.1-0.1,0.1c0,0,0,0-0.1,0.1l-1.1,1.1l-0.3-0.3c-0.3-0.3-0.5-0.5-0.8-0.8c-0.1-0.1-0.1-0.1-0.2-0.2
			c-0.2-0.1-0.5-0.1-0.6,0.1c-0.2,0.1-0.2,0.4-0.1,0.6c0,0,0,0.1,0.1,0.2c0,0,0,0.1,0.1,0.1l1.1,1.1l-0.3,0.3
			C35.1,33.9,34.9,34.2,34.6,34.5z"/>
		<path d="M33.4,37.4h-0.6v0c0-0.1,0-0.2-0.1-0.2c-0.1-0.2-0.3-0.3-0.4-0.3s-0.4,0.1-0.5,0.3c0,0.1-0.1,0.2-0.1,0.3h-0.3
			c0,0-0.1,0-0.1,0c-0.3,0-0.5,0.3-0.5,0.5c0,0.3,0.2,0.5,0.4,0.5c0.1,0,0.1,0,0.2,0h0.3c0,0,0,0,0,0c0,0.3,0.2,0.5,0.5,0.5h0
			c0.2,0,0.5-0.2,0.5-0.4c0,0,0-0.1,0-0.1c0.2,0,0.4,0,0.6,0c0,0,0,0.1,0,0.1c0,0.2,0.3,0.4,0.5,0.4s0.5-0.2,0.5-0.4
			c0,0,0-0.1,0-0.1c0,0,0,0,0,0c0,0,0.1,0,0.1,0c0.1,0,0.2,0,0.3,0c0,0,0.1,0,0.1,0h0c0,0,0,0,0,0.1c0,0.3,0.2,0.5,0.5,0.5
			c0.3,0,0.5-0.1,0.6-0.4c0,0,0-0.1,0-0.1h0.1c0.1,0,0.2,0,0.3,0c0.1,0,0.1,0,0.2,0c0.2-0.1,0.4-0.3,0.4-0.5c0-0.2-0.1-0.5-0.4-0.5
			c-0.1-0.1-0.2-0.1-0.3-0.1c-0.1,0-0.2,0-0.3,0h-0.1c0-0.1,0-0.2-0.1-0.3c-0.1-0.1-0.3-0.2-0.4-0.2c-0.2,0-0.3,0.1-0.4,0.2
			c-0.1,0.1-0.1,0.2-0.1,0.3c-0.1,0-0.2,0-0.3,0h0c0,0-0.1,0-0.2,0c0,0-0.1,0-0.1,0c0,0,0-0.1,0-0.1c0-0.3-0.3-0.5-0.5-0.5
			C33.7,36.8,33.5,37,33.4,37.4C33.4,37.4,33.4,37.4,33.4,37.4z"/>
		<path d="M31.4,35.5L31.4,35.5c0.5,0,1.1-0.2,1.5-0.6c0.4-0.4,0.6-0.9,0.6-1.5c0-0.6-0.2-1.1-0.6-1.5c-0.4-0.4-0.9-0.6-1.5-0.6h0
			c-0.5,0-1.1,0.2-1.5,0.6c-0.4,0.4-0.6,0.9-0.6,1.5C29.3,34.5,30.2,35.5,31.4,35.5z M30.4,33.3c0-0.3,0.1-0.6,0.3-0.7
			c0.2-0.2,0.4-0.3,0.7-0.3h0l0,0c0.3,0,0.5,0.1,0.7,0.3c0.2,0.2,0.3,0.4,0.3,0.7c0,0.5-0.5,1-1,1l0,0c-0.2,0-0.5-0.1-0.7-0.3
			C30.5,33.9,30.4,33.7,30.4,33.3z"/>
	</g>
	<g>
		<g>
			<path d="M48.8,38.4c-0.5,0-1-0.1-1.3-0.5C47.2,37.5,47,37,47,36.4v-1h1.2v1c0,0.3,0,0.4,0.2,0.6c0.1,0.1,0.2,0.1,0.5,0.1
				c0.2,0,0.4,0,0.5-0.1c0.1-0.1,0.2-0.3,0.2-0.6v-0.5c0-0.3-0.1-0.6-0.4-0.9c0,0-0.2-0.1-0.5-0.3c-0.3-0.2-0.6-0.3-0.8-0.5
				c-0.3-0.2-0.5-0.5-0.6-0.8c-0.1-0.3-0.2-0.6-0.2-1v-0.2c0-0.6,0.2-1.1,0.6-1.5c0.3-0.3,0.8-0.5,1.3-0.5c0.5,0,1,0.1,1.3,0.5
				c0.4,0.3,0.6,0.8,0.6,1.5v0.7h-1.2v-0.7c0-0.3,0-0.5-0.2-0.6c-0.1-0.1-0.2-0.1-0.5-0.1c-0.2,0-0.4,0-0.5,0.1
				c-0.1,0.1-0.2,0.3-0.2,0.6v0.2c0,0.3,0.1,0.6,0.4,0.9c0.1,0,0.2,0.1,0.4,0.3c0.4,0.2,0.7,0.4,0.8,0.5c0.5,0.5,0.8,1.1,0.8,1.8
				v0.5c0,0.6-0.2,1.1-0.6,1.5C49.8,38.2,49.3,38.4,48.8,38.4z"/>
			<path d="M52.8,38.3h-1.2v-7.9h1.9c0.5,0,1,0.1,1.3,0.5c0.4,0.3,0.6,0.8,0.6,1.5v0.9c0,0.6-0.2,1.1-0.6,1.5
				c-0.3,0.3-0.8,0.5-1.3,0.5h-0.6V38.3z M52.8,33.9h0.6c0.2,0,0.4,0,0.5-0.1c0.1-0.1,0.2-0.3,0.2-0.6v-0.8c0-0.3,0-0.4-0.2-0.6
				c-0.1-0.1-0.2-0.1-0.5-0.1h-0.6V33.9z"/>
			<path d="M58,38.4c-0.5,0-1-0.1-1.3-0.5c-0.4-0.3-0.6-0.8-0.6-1.5v-4.2c0-0.6,0.2-1.1,0.6-1.5c0.3-0.3,0.8-0.5,1.3-0.5
				s1,0.1,1.3,0.5c0.4,0.3,0.6,0.8,0.6,1.5v4.2c0,0.6-0.2,1.1-0.6,1.5C59,38.2,58.6,38.4,58,38.4z M58,31.6c-0.2,0-0.4,0-0.5,0.1
				c-0.1,0.1-0.2,0.3-0.2,0.6v4.2c0,0.3,0,0.4,0.2,0.6c0.1,0.1,0.2,0.1,0.5,0.1c0.2,0,0.4,0,0.5-0.1c0.1-0.1,0.2-0.3,0.2-0.6v-4.2
				c0-0.3,0-0.5-0.2-0.6C58.4,31.6,58.3,31.6,58,31.6z"/>
			<path d="M64.6,38.3h-1.3l-0.6-3.2h-0.6v3.2h-1.2v-7.9h1.9c0.5,0,1,0.1,1.3,0.5c0.4,0.3,0.6,0.8,0.6,1.5v0.8
				c0,0.6-0.2,1.1-0.6,1.5c0,0-0.1,0.1-0.2,0.1L64.6,38.3z M63.4,32.3c0-0.3,0-0.4-0.2-0.6c-0.1-0.1-0.2-0.1-0.5-0.1h-0.6v2.2h0.6
				c0.2,0,0.4,0,0.5-0.1c0.1-0.1,0.2-0.3,0.2-0.6V32.3z"/>
			<path d="M69,30.4v1.2h-1.3v6.6h-1.2v-6.6h-1.2v-1.2H69z"/>
			<path d="M71.5,38.4c-0.5,0-1-0.1-1.3-0.5c-0.4-0.3-0.6-0.8-0.6-1.5v-1h1.2v1c0,0.3,0,0.4,0.2,0.6c0.1,0.1,0.2,0.1,0.5,0.1
				c0.2,0,0.4,0,0.5-0.1c0.1-0.1,0.2-0.3,0.2-0.6v-0.5c0-0.3-0.1-0.6-0.4-0.9c0,0-0.2-0.1-0.5-0.3c-0.3-0.2-0.6-0.3-0.8-0.5
				c-0.3-0.2-0.5-0.5-0.6-0.8c-0.1-0.3-0.2-0.6-0.2-1v-0.2c0-0.6,0.2-1.1,0.6-1.5c0.3-0.3,0.8-0.5,1.3-0.5c0.5,0,1,0.1,1.3,0.5
				c0.4,0.3,0.6,0.8,0.6,1.5v0.7h-1.2v-0.7c0-0.3,0-0.5-0.2-0.6c-0.1-0.1-0.2-0.1-0.5-0.1c-0.2,0-0.4,0-0.5,0.1
				c-0.1,0.1-0.2,0.3-0.2,0.6v0.2c0,0.3,0.1,0.6,0.4,0.9c0.1,0,0.2,0.1,0.4,0.3c0.4,0.2,0.7,0.4,0.8,0.5c0.5,0.5,0.8,1.1,0.8,1.8
				v0.5c0,0.6-0.2,1.1-0.6,1.5C72.5,38.2,72,38.4,71.5,38.4z"/>
		</g>
		<g>
			<path d="M49.1,50h-1.9v-7.9h1.7c0.5,0,1,0.1,1.3,0.4c0.2,0.2,0.3,0.4,0.4,0.6c0.1,0.2,0.1,0.5,0.1,0.8v0.7c0,0.5-0.1,0.9-0.4,1.2
				c0.4,0.3,0.6,0.8,0.6,1.4v0.7c0,0.3,0,0.6-0.1,0.8c-0.1,0.2-0.2,0.4-0.4,0.6C50.1,49.9,49.7,50,49.1,50z M48.5,45.5H49
				c0.2,0,0.4,0,0.5-0.1c0.1-0.1,0.2-0.3,0.2-0.6V44c0-0.2,0-0.4-0.1-0.5c-0.1-0.1-0.2-0.1-0.5-0.1h-0.5L48.5,45.5L48.5,45.5z
				 M48.5,48.8h0.6c0.2,0,0.4,0,0.5-0.1c0.1-0.1,0.1-0.3,0.1-0.5v-0.7c0-0.3,0-0.4-0.2-0.6c-0.1-0.1-0.2-0.1-0.5-0.1h-0.6L48.5,48.8
				L48.5,48.8z"/>
			<path d="M61.3,50l-0.2-1.2h-1.4L59.4,50h-1.3l1.6-7.9H61l1.6,7.9H61.3z M59.8,47.5h1l-0.5-2.8L59.8,47.5z"/>
			<path d="M73.6,50h-1.3l-0.6-3.2h-0.6V50h-1.2v-7.9h1.9c0.5,0,1,0.1,1.3,0.5c0.4,0.3,0.6,0.8,0.6,1.5v0.8c0,0.6-0.2,1.1-0.6,1.5
				c0,0-0.1,0.1-0.2,0.1L73.6,50z M72.4,44.1c0-0.3,0-0.4-0.2-0.6c-0.1-0.1-0.2-0.1-0.5-0.1h-0.6v2.2h0.6c0.2,0,0.4,0,0.5-0.1
				c0.1-0.1,0.2-0.3,0.2-0.6V44.1z"/>
		</g>
	</g>
</g>
</svg>
