<?xml version="1.0" encoding="utf-8"?>
<!-- Generator: Adobe Illustrator 23.1.0, SVG Export Plug-In . SVG Version: 6.00 Build 0)  -->
<svg version="1.1" id="Ebene_1" xmlns="http://www.w3.org/2000/svg" xmlns:xlink="http://www.w3.org/1999/xlink" x="0px" y="0px"
	 viewBox="0 0 80 80" style="enable-background:new 0 0 80 80;" xml:space="preserve">
<style type="text/css">
	.st0{fill:#1D1926;}
</style>
<g id="Field_2_">
	<path id="Field_3_" class="st0" d="M77,11.8H3c-1.6,0-3,1.3-3,3v50.6c0,1.6,1.3,3,3,3l74.1,0c1.6,0,3-1.3,3-3V14.7
		C80,13.1,78.7,11.8,77,11.8z M62,44.8c-2.3-0.4-4-2.4-4-4.8c0-2.4,1.7-4.4,4-4.8V44.8z M63.9,26.4H78v4.2h-6
		c-0.8,0-1.4,0.6-1.4,1.4V48c0,0.8,0.6,1.4,1.4,1.4h6v4.2H63.9V26.4z M78,47.5h-5.6v-15H78V47.5z M77,13.8c0.5,0,1,0.4,1,1v3.1
		c-2.2,0-4-1.8-4-4H77z M39,46.1c-3-0.5-5.2-3-5.2-6.1c0-3.1,2.3-5.7,5.2-6.1V46.1z M41,33.9c3,0.5,5.3,3,5.3,6.1
		c0,3.1-2.3,5.7-5.3,6.1V33.9z M2,14.7c0-0.5,0.4-1,1-1H6c0,2.2-1.8,4-4,4V14.7z M18,35.2c2.3,0.4,4,2.4,4,4.8c0,2.4-1.7,4.4-4,4.8
		V35.2z M16.1,53.6H2v-4.2h6c0.8,0,1.4-0.6,1.4-1.4V32c0-0.8-0.6-1.4-1.4-1.4H2v-4.2h14.1V53.6z M2,32.5h5.6v15H2V32.5z M3,66.2
		c-0.5,0-1-0.4-1-1v-3.1c2.2,0,4,1.8,4,4H3z M2,60.3v-4.8h14.2c1,0,1.8-0.8,1.8-1.8v-6.9c3.3-0.5,5.9-3.3,5.9-6.8
		c0-3.4-2.6-6.3-5.9-6.8v-6.9c0-1-0.8-1.8-1.8-1.8H2v-4.9c3.3,0,5.9-2.7,5.9-5.9h31.2c0,0.1-0.1,0.2-0.1,0.3v17.9
		c-4,0.5-7.2,3.9-7.2,8.1c0,4.1,3.1,7.6,7.2,8V66c0,0.1,0,0.2,0.1,0.3H7.9C7.9,63,5.3,60.3,2,60.3z M78,65.3c0,0.5-0.4,1-1,1H74
		c0-2.2,1.8-4,4-4V65.3z M78,60.3c-3.3,0-5.9,2.7-5.9,5.9H40.9c0-0.1,0.1-0.2,0.1-0.3V48.1c4-0.5,7.2-3.9,7.2-8.1
		c0-4.2-3.1-7.6-7.2-8.1V14c0-0.1,0-0.2-0.1-0.3h31.2c0,3.3,2.7,5.9,5.9,5.9v4.9H63.8c-1,0-1.8,0.8-1.8,1.8v6.9
		c-3.3,0.5-5.9,3.3-5.9,6.8s2.6,6.3,5.9,6.8v6.9c0,1,0.8,1.8,1.8,1.8H78V60.3z"/>
	<path id="Right_Penalty_1_" class="st0" d="M66.6,40c0,0.6,0.5,1,1,1c0.6,0,1-0.5,1-1c0-0.6-0.5-1-1-1C67,39,66.6,39.4,66.6,40z"/>
	<path id="Left_Penalty_1_" class="st0" d="M13.4,40c0-0.6-0.5-1-1-1c-0.6,0-1,0.5-1,1c0,0.6,0.5,1,1,1C13,41,13.4,40.6,13.4,40z"/>
</g>
</svg>
