<?xml version="1.0" encoding="utf-8"?>
<!-- Generator: Adobe Illustrator 23.1.0, SVG Export Plug-In . SVG Version: 6.00 Build 0)  -->
<svg version="1.1" id="Ebene_1" xmlns="http://www.w3.org/2000/svg" xmlns:xlink="http://www.w3.org/1999/xlink" x="0px" y="0px"
	 viewBox="0 0 50 30" style="enable-background:new 0 0 50 30;" xml:space="preserve">
<style type="text/css">
	.st0{fill-rule:evenodd;clip-rule:evenodd;fill:#1D1926;}
</style>
<g>
	<g>
		<path class="st0" d="M29.5,12.8c0.9-1,2.1-1.6,3.6-1.6c1.5,0,2.8,0.7,3.6,1.7l0.2-0.2c-0.9-1.1-2.3-1.8-3.9-1.8
			c-1.5,0-2.9,0.7-3.8,1.7L29.5,12.8L29.5,12.8z"/>
		<polygon class="st0" points="32.6,10.3 31.3,10.6 30.9,8.9 32.3,8.6 32.3,8.9 31.4,9.1 31.5,9.5 32.4,9.3 32.4,9.6 31.6,9.8 
			31.7,10.2 32.6,10 32.6,10.3 		"/>
		<polygon class="st0" points="35.3,9.2 34.5,9 34.4,9.4 35.2,9.6 35.1,9.9 34.3,9.7 34.2,10.4 33.7,10.3 34,8.6 35.3,8.9 35.3,9.2 
					"/>
		<path class="st0" d="M37.3,12.1l-0.4-0.4l0.1-0.4l-0.7-0.5L35.9,11l-0.5-0.3l1.7-1l0.5,0.3L37.3,12.1L37.3,12.1L37.3,12.1z
			 M37.1,10.2l-0.6,0.4L37,11L37.1,10.2L37.1,10.2z"/>
		<path class="st0" d="M29.7,11.4c-0.3,0.2-0.8,0.4-1.2,0l-0.5-0.7l0.4-0.3l0.5,0.7c0.2,0.2,0.4,0.2,0.6,0c0.2-0.2,0.3-0.4,0.1-0.6
			L29,9.8l0.4-0.3l0.6,0.7C30.3,10.7,30.1,11.1,29.7,11.4L29.7,11.4z"/>
		<path class="st0" d="M39,10.4c-1.5-1.6-3.6-2.5-5.9-2.5c-2.3,0-4.4,1-5.9,2.6l-0.2-0.3c1.6-1.6,3.7-2.6,6.2-2.6
			c2.4,0,4.6,1,6.1,2.6L39,10.4L39,10.4z"/>
		<path class="st0" d="M40.6,17.2c-1,0-1.6-0.9-1.6-1.8c0-1,0.7-1.7,1.7-1.7c1.1,0,1.7,0.8,1.7,1.8C42.3,16.6,41.5,17.2,40.6,17.2
			L40.6,17.2L40.6,17.2z M40.6,14.2c-0.6,0-0.8,0.6-0.8,1c0,0.6,0.3,1.5,1,1.5c0.5,0,0.8-0.5,0.8-1C41.6,15.1,41.3,14.2,40.6,14.2
			L40.6,14.2z"/>
		<path class="st0" d="M34.3,16.7c0,0.2,0,0.3,0.3,0.3v0.1c-0.3,0-0.5,0-0.7,0c-0.2,0-0.4,0-0.6,0V17c0.2,0,0.2-0.1,0.2-0.4v-2.5
			c0-0.1-0.1-0.2-0.2-0.2v-0.1h1.5c1,0,1.3,0.5,1.3,1.1c0,0.6-0.5,1-1.1,1c-0.3,0-0.6-0.1-0.6-0.2c0,0,0,0,0.1,0c0,0,0.1,0,0.2,0
			c0.5,0,0.8-0.3,0.8-0.7c0-0.5-0.3-0.6-0.7-0.6l-0.3,0L34.3,16.7L34.3,16.7L34.3,16.7z M34.3,16.7L34.3,16.7L34.3,16.7L34.3,16.7z"
			/>
		<path class="st0" d="M37.2,14.1c0-0.1-0.1-0.2-0.2-0.2v-0.1c0.2,0,0.4,0,0.6,0c0.2,0,0.4,0,0.6,0v0.1c-0.2,0-0.2,0.1-0.2,0.2v2.7
			c0,0.1,0.1,0.2,0.2,0.2v0.1c-0.2,0-0.4,0-0.6,0c-0.2,0-0.4,0-0.6,0V17c0.2,0,0.2-0.1,0.2-0.2V14.1L37.2,14.1z"/>
		<path class="st0" d="M43.4,14.1c0-0.1-0.1-0.2-0.2-0.2v-0.1c0.2,0,0.4,0,0.6,0c0.1,0,0.3,0,0.5,0l1.4,2.3l0,0v-1.9
			c0-0.3-0.2-0.3-0.3-0.3v-0.1c0.2,0,0.3,0,0.5,0c0.2,0,0.3,0,0.5,0v0.1c-0.2,0-0.2,0.1-0.2,0.2v3h-0.5l-1.7-2.7h0v2.2
			c0,0.3,0.2,0.3,0.3,0.3v0.1c-0.2,0-0.3,0-0.5,0c-0.2,0-0.3,0-0.5,0l0-0.1c0.2,0,0.2-0.1,0.2-0.2V14.1L43.4,14.1z"/>
		<path class="st0" d="M47.4,16c0.1,0.6,0.5,0.8,1.1,0.8c0.3,0,0.8-0.1,0.8-0.5c0-0.3-0.3-0.4-0.6-0.5l-0.4-0.1
			c-0.5-0.2-1.1-0.4-1.1-1c0-0.8,0.8-1.1,1.6-1.1c0.3,0,0.7,0.1,1,0.2c0,0.4,0,0.7,0,1l-0.1,0c-0.1-0.5-0.5-0.7-1-0.7
			c-0.3,0-0.7,0.1-0.7,0.5c0,0.3,0.3,0.4,0.5,0.4l0.6,0.2c0.5,0.2,1,0.4,1,1c0,0.7-0.7,1.1-1.6,1.1c-0.4,0-0.8-0.1-1.2-0.2
			c0-0.4,0-0.8,0-1.1L47.4,16L47.4,16L47.4,16z M47.4,16L47.4,16L47.4,16L47.4,16z"/>
		<path class="st0" d="M20.6,14.1c0-0.1-0.1-0.2-0.2-0.2v-0.1c0.2,0,0.4,0,0.6,0c0.2,0,0.4,0,0.6,0v0.1c-0.2,0-0.2,0.1-0.2,0.2v1
			h1.2v-1c0-0.1-0.1-0.2-0.2-0.2v-0.1c0.2,0,0.4,0,0.6,0c0.2,0,0.4,0,0.6,0v0.1c-0.2,0-0.2,0.1-0.2,0.2l0,2.7c0,0.1,0.1,0.2,0.2,0.2
			v0.1c-0.2,0-0.4,0-0.6,0c-0.2,0-0.4,0-0.6,0V17c0.2,0,0.2-0.1,0.2-0.2v-1.2h-1.2v1.2c0,0.1,0.1,0.2,0.2,0.2v0.1
			c-0.2,0-0.4,0-0.6,0c-0.2,0-0.4,0-0.6,0V17c0.2,0,0.2-0.1,0.2-0.2L20.6,14.1L20.6,14.1L20.6,14.1z M20.6,14.1L20.6,14.1L20.6,14.1
			L20.6,14.1z"/>
		<path class="st0" d="M25.5,15.7c0.1-0.4,0.3-0.8,0.4-1.2h0c0.1,0.5,0.2,0.8,0.3,1.2H25.5L25.5,15.7L25.5,15.7z M24.3,17.2
			c0.2,0,0.4,0,0.5,0c0.2,0,0.4,0,0.5,0V17c-0.2,0-0.2-0.1-0.2-0.2c0-0.1,0-0.1,0-0.2l0.2-0.6h1l0.2,0.5c0,0.1,0.1,0.2,0.1,0.3
			c0,0.1-0.1,0.2-0.3,0.2v0.1c0.2,0,0.4,0,0.7,0c0.2,0,0.4,0,0.7,0V17c-0.2,0-0.2-0.1-0.3-0.3l-0.9-2.9c-0.2,0-0.3,0-0.5,0
			c-0.2,0-0.3,0-0.5,0v0.1c0.1,0,0.2,0.1,0.2,0.1c0,0.1,0,0.1-0.1,0.2l-1,2.6c-0.1,0.1-0.1,0.2-0.3,0.2L24.3,17.2L24.3,17.2
			L24.3,17.2z"/>
		<path class="st0" d="M28.7,14.6c0-0.1,0-0.3,0-0.5c0-0.2,0-0.2-0.2-0.2v-0.1c0.2,0,0.3,0,0.5,0c0.2,0,0.4,0,0.6,0l0.9,2.4l0.8-2.4
			c0.2,0,0.4,0,0.5,0c0.2,0,0.4,0,0.5,0v0.1c-0.2,0-0.2,0.1-0.2,0.2c0,0.1,0,0.4,0,0.6l0.2,2.2c0,0.1,0.2,0.2,0.3,0.2l0,0.1
			c-0.2,0-0.4,0-0.7,0c-0.2,0-0.4,0-0.7,0V17c0.3,0,0.3-0.1,0.3-0.3c0-0.1,0-0.4,0-0.5l-0.1-1.5h0l-0.9,2.5h-0.4l-1-2.6h0l0,1.5
			c0,0.3,0,0.4,0,0.5c0,0.3,0,0.3,0.3,0.4v0.1c-0.2,0-0.4,0-0.6,0c-0.2,0-0.4,0-0.5,0V17c0.2,0,0.3-0.1,0.3-0.3L28.7,14.6L28.7,14.6
			z"/>
		<path class="st0" d="M19.6,17c-0.4,0.3-0.9,0.4-1.2,0.4c-1.2,0-1.9-1-1.9-1.9c0-1,0.7-2,2-2c0.5,0,0.8,0.1,0.9,0.1
			c0,0.4,0,0.8,0,1.1l-0.1,0c-0.1-0.5-0.4-0.7-0.9-0.7c-0.6,0-1.1,0.5-1.1,1.4c0,0.6,0.5,1.4,1.3,1.4c0.3,0,0.8-0.2,1.1-0.4L19.6,17
			L19.6,17z"/>
		<path class="st0" d="M25.2,19c0-0.1,0-0.2-0.2-0.2v-0.1c0.2,0,0.3,0,0.5,0c0.2,0,0.4,0,0.5,0v0.1c-0.2,0-0.2,0.1-0.2,0.2V21l0.7,0
			c0.3,0,0.4-0.1,0.4-0.4H27c0,0.3-0.1,0.5-0.1,0.8h-2v-0.1c0.1,0,0.2-0.1,0.2-0.2V19L25.2,19z"/>
		<path class="st0" d="M27.7,19c0-0.1,0-0.2-0.2-0.2v-0.1l2,0c0,0.2,0,0.4,0,0.6h-0.1c0-0.2-0.1-0.3-0.3-0.3h-0.8v0.8l0.5,0
			c0.2,0,0.2-0.1,0.2-0.2h0.1c0,0.1,0,0.3,0,0.4c0,0.1,0,0.3,0,0.4H29c0-0.1-0.1-0.2-0.2-0.2h-0.5V21l0.9,0c0.2,0,0.3-0.1,0.3-0.4
			h0.1c0,0.3,0,0.5,0,0.8h-2.1v-0.1c0.1,0,0.2-0.1,0.2-0.2V19L27.7,19z"/>
		<path class="st0" d="M30.1,21.3c0.1,0,0.2-0.1,0.2-0.2l0.8-2c0-0.1,0.1-0.1,0.1-0.2c0,0,0-0.1-0.2-0.1v-0.1c0.1,0,0.3,0,0.4,0
			c0.1,0,0.3,0,0.4,0l0.7,2.3c0.1,0.2,0.1,0.2,0.2,0.3v0.1c-0.2,0-0.3,0-0.5,0c-0.2,0-0.3,0-0.5,0v-0.1c0.1,0,0.2-0.1,0.2-0.2
			c0-0.1,0-0.1,0-0.2l-0.1-0.4H31L30.8,21c0,0.1,0,0.1,0,0.1c0,0.1,0.1,0.1,0.2,0.1v0.1c-0.1,0-0.3,0-0.4,0c-0.1,0-0.3,0-0.4,0
			L30.1,21.3L30.1,21.3L30.1,21.3z M31.6,20.2c-0.1-0.3-0.2-0.5-0.2-0.9h0c-0.1,0.3-0.2,0.6-0.3,0.9H31.6L31.6,20.2z"/>
		<path class="st0" d="M34.9,20.4c0-0.2-0.1-0.2-0.3-0.2v-0.1c0.2,0,0.3,0,0.5,0c0.2,0,0.4,0,0.5,0v0.1c-0.1,0-0.2,0-0.2,0.2v0.9
			l-0.2,0l-0.1-0.3c-0.3,0.2-0.5,0.3-0.8,0.3c-0.7,0-1.2-0.6-1.2-1.3c0-0.9,0.6-1.4,1.4-1.4c0.3,0,0.6,0.1,0.8,0.2
			c0,0.2,0,0.4,0,0.7l-0.1,0c-0.1-0.4-0.4-0.5-0.7-0.5c-0.6,0-0.8,0.4-0.8,0.9c0,0.5,0.3,1.1,0.7,1.1c0.3,0,0.4-0.1,0.4-0.3
			L34.9,20.4L34.9,20.4L34.9,20.4z M34.9,20.4L34.9,20.4L34.9,20.4L34.9,20.4z"/>
		<path class="st0" d="M36.4,19c0-0.1,0-0.2-0.2-0.2v-0.1c0.1,0,0.3,0,0.5,0c0.2,0,0.4,0,0.5,0v0.1c-0.2,0-0.2,0-0.2,0.2v1.5
			c0,0.4,0.2,0.5,0.5,0.5c0.3,0,0.5-0.1,0.5-0.5V19c0-0.2,0-0.2-0.2-0.2v-0.1c0.2,0,0.3,0,0.5,0c0.2,0,0.3,0,0.5,0v0.1
			c-0.1,0-0.2,0.1-0.2,0.2v1.4c0,0.7-0.4,1-1.1,1c-0.7,0-1.1-0.2-1.1-0.9L36.4,19L36.4,19L36.4,19z M36.4,19L36.4,19L36.4,19
			L36.4,19z"/>
		<path class="st0" d="M39.7,19c0-0.1,0-0.2-0.2-0.2v-0.1l2,0c0,0.2,0,0.4,0,0.6h-0.1c0-0.2-0.1-0.3-0.3-0.3h-0.9v0.8h0.5
			c0.2,0,0.2-0.1,0.2-0.2l0.1,0c0,0.1,0,0.3,0,0.4c0,0.1,0,0.3,0,0.4H41c0-0.1-0.1-0.2-0.2-0.2h-0.5V21h0.9c0.2,0,0.3-0.1,0.3-0.4
			h0.1c0,0.3,0,0.5,0,0.8h-2.1v-0.1c0.1,0,0.2-0.1,0.2-0.2V19L39.7,19z"/>
		<path class="st0" d="M42.2,22.4c0.3,0,0.5-0.2,0.5-0.5c0-0.3-0.2-0.5-0.5-0.5c-0.3,0-0.5,0.2-0.5,0.5C41.8,22.2,42,22.4,42.2,22.4
			L42.2,22.4L42.2,22.4z M41.8,22c0-0.2,0.2-0.4,0.4-0.4c0.2,0,0.4,0.2,0.4,0.4c0,0.2-0.2,0.4-0.4,0.4C42,22.4,41.8,22.2,41.8,22
			L41.8,22z M42.1,22L42.1,22l0.2,0.2h0.1L42.3,22c0.1,0,0.1-0.1,0.1-0.2c0-0.1-0.1-0.2-0.2-0.2h-0.2v0.5h0.1L42.1,22L42.1,22
			L42.1,22z M42.1,21.9v-0.2l0.1,0c0.1,0,0.1,0,0.1,0.1C42.4,21.9,42.3,21.9,42.1,21.9L42.1,21.9L42.1,21.9z"/>
	</g>
	<g>
		<path class="st0" d="M7.5,16c1.6,0.4,2.8,0.7,2.8,0.7C9.6,16,9,15.3,8.4,14.6c0.9-1.3,1.7-2.2,1.7-2.2c-1,0.2-1.9,0.5-2.8,0.8
			c-0.8-1.1-1.2-1.9-1.2-1.9c-0.2,0.9-0.3,1.7-0.4,2.5c-1.3,0.5-2.2,0.9-2.2,0.9C4.3,15,5,15.3,5.7,15.5c0.1,1.6,0.4,2.6,0.4,2.6
			C6.6,17.4,7,16.7,7.5,16L7.5,16z"/>
		<path class="st0" d="M14.8,15.6c-0.2,0.3-0.6,0.6-0.9,0.8c-0.1-1.1-0.2-2.1-0.2-2.1c-0.3,0.9-0.7,1.7-1,2.4c-1.2,0.2-2.3,0-2.3,0
			c0.6,0.8,1.1,1.2,1.5,1.5c-0.6,1-1,1.5-1,1.5c0.8-0.2,1.5-0.5,2-0.9c0.2,0.1,0.4,0.3,0.6,0.6c0,0,0.3-0.5,0.5-1.6
			C14.7,16.7,14.8,15.6,14.8,15.6L14.8,15.6z"/>
		<path class="st0" d="M14.4,12.6c-0.4-0.8-0.9-1.5-1.5-2c-0.5-1.1-1.1-1.5-1.1-1.5c0,0.2,0,0.5-0.1,0.8c-1.3-0.6-2.4-0.7-2.4-0.7
			c0.7,0.5,1.4,1.1,1.9,1.7c-0.5,0.8-1.2,1.5-1.2,1.5c0.9-0.2,1.6-0.3,2.2-0.3c0.9,1.2,1.4,2.2,1.4,2.2c0-0.8-0.1-1.5-0.2-2.2
			C14.2,12.3,14.4,12.6,14.4,12.6L14.4,12.6z"/>
		<path class="st0" d="M9.4,9.2C8.7,8.9,8.2,8.6,7.6,8.5C8.3,7.9,9,7.8,9,7.8c-1.1,0-2.1,0.2-2.9,0.5C4.9,8.1,4.2,8.3,4.2,8.3
			C4.3,8.5,4.5,8.7,4.6,9c-1,0.7-1.5,1.4-1.5,1.4C3.7,10.1,4.4,9.9,5,9.7c0.1,0.1,0.1,0.3,0.2,0.4c0.4,0.7,0.9,1.1,0.9,1.1
			c0.2-0.8,0.4-1.4,0.8-1.9C8.3,9.1,9.4,9.2,9.4,9.2L9.4,9.2z"/>
		<path class="st0" d="M1.7,11.6c0.4-0.4,0.8-0.8,1.4-1.2c0,0-0.5,0-1.1,0.1c0.4-0.9,0.8-1.4,0.8-1.4s-2.3,1.6-2.7,4.6
			c0,0,0.2-0.5,0.8-1.3c0.3,0.6,0.6,0.9,0.6,0.9C1.5,12.7,1.6,12.1,1.7,11.6L1.7,11.6z"/>
		<path class="st0" d="M3.6,14.6c-0.8,0-1.4,0.1-1.9,0.2c-0.1-0.9-0.2-1.5-0.2-1.5c-0.4,0.6-0.6,1.2-0.8,1.7C0.1,15.3,0,15.5,0,15.5
			c0.1,0.3,0.3,0.6,0.5,0.9c-0.1,1.3,0.3,2.1,0.3,2.1c0.1-0.4,0.3-0.9,0.5-1.3c0.7,0.5,1.4,0.9,1.4,0.9c-0.3-0.6-0.5-1.2-0.7-1.8
			C2.7,15.3,3.6,14.6,3.6,14.6L3.6,14.6z"/>
		<path class="st0" d="M7.5,21.2c0,0-0.7-0.3-1.6-0.8c0-0.6,0.1-1.3,0.3-2.2c0,0-0.8,0.8-1.7,1.3c-0.6-0.4-1.2-0.9-1.8-1.4
			c0,0,0.3,0.9,0.8,1.8C3,20.1,2.5,20.2,2,20.1c0,0,0.6,0.7,2.4,1c0.5,0.6,1.1,1.1,1.8,1.2c0,0-0.2-0.2-0.3-1.1
			C6.4,21.2,6.9,21.2,7.5,21.2L7.5,21.2z"/>
		<path class="st0" d="M10.7,21.1c0.2-0.7,0-1.4,0-1.4c-0.5,0.6-0.9,1.1-1.3,1.5c-1.1,0.1-2-0.1-2-0.1s0.5,0.5,1.1,0.8
			c-0.7,0.5-1.3,0.5-1.3,0.5c3.3,0.1,5.2-2.1,5.2-2.1C12,20.7,11.4,21,10.7,21.1L10.7,21.1z"/>
	</g>
</g>
</svg>
