<?xml version="1.0" encoding="utf-8"?>
<!-- Generator: Adobe Illustrator 23.1.0, SVG Export Plug-In . SVG Version: 6.00 Build 0)  -->
<svg version="1.1" id="Ebene_1" xmlns="http://www.w3.org/2000/svg" xmlns:xlink="http://www.w3.org/1999/xlink" x="0px" y="0px"
	 viewBox="0 0 50 30" style="enable-background:new 0 0 50 30;" xml:space="preserve">
<style type="text/css">
	.st0{fill:#1D1926;}
</style>
<g>
	<path class="st0" d="M26,1.6c-0.4-0.5-0.8-1-1-1.6c-0.3,0.5-0.6,1.1-1,1.6c-2.6,3-6.1,4-10,0.5v20.5c0,2.3,1.8,3.1,3.4,3.7l1.3,0.4
		c1.9,0.2,3.8,0.7,6.3,3.4c2.5-2.7,4.4-3.1,6.3-3.4l1.3-0.4c1.6-0.6,3.4-1.4,3.4-3.7V2C32.1,5.6,28.6,4.6,26,1.6z M35.2,21.8
		c0,2.1-1.7,2.8-3.2,3.4l-1.2,0.3c-1.8,0.2-3.5,0.7-5.8,3.1c0,0,0,0,0,0c0,0,0,0,0,0c-2.3-2.4-4-2.8-5.8-3.1l-1.2-0.3
		c-1.5-0.6-3.1-1.3-3.2-3.4V3.7c2.8,2.2,6.8,1.8,9.2-0.9c0.4-0.4,0.7-0.9,1-1.4c0.3,0.5,0.6,1,1,1.4c2.4,2.7,6.4,3.1,9.2,0.9V21.8z"
		/>
	<path class="st0" d="M23.9,8.2L23.4,8c0-0.1,0.1-0.1,0.1-0.2l1.3,0.7c0,0.1-0.1,0.1-0.1,0.2l-0.5-0.3c-0.8,1.2-1.4,2.6-1.6,3
		c0.5,0.1,3.2,0.3,4.7-2c1.2-1.9,0.5-4,0.3-4.4c-0.2,0.2-0.7,0.5-1.2,1l0.5,0.3c-0.1,0-0.1,0.1-0.2,0.2l-1.3-0.7
		c0.1,0,0.1-0.1,0.2-0.1L26,5.8c0.6-0.5,1.1-0.8,1.4-0.9c-0.6-0.1-3.2-0.1-4.5,2c-1.3,2-0.7,3.9-0.5,4.4
		C22.6,10.8,23.2,9.5,23.9,8.2z M25,6l1.4,0.7c-0.1,0.1-0.1,0.1-0.2,0.2l-1.4-0.7C24.8,6.2,24.9,6.1,25,6z M24.4,6.6l1.4,0.7
		c-0.1,0.1-0.1,0.1-0.2,0.2l-1.4-0.7C24.3,6.7,24.3,6.6,24.4,6.6z M23.9,7.1l1.4,0.7C25.2,7.9,25.2,8,25.1,8l-1.4-0.7
		C23.8,7.3,23.8,7.2,23.9,7.1z"/>
	<path class="st0" d="M27.6,5c0.1-0.1,0.2-0.1,0.2-0.1l-0.1-0.1c0,0-0.1,0-0.2,0.1C27.5,4.9,27.6,4.9,27.6,5C27.6,4.9,27.6,5,27.6,5
		z"/>
	<path class="st0" d="M26,5.9L26.3,6c0,0,0.1,0,0.1-0.1L26,5.9C26,5.8,26,5.8,26,5.9z"/>
	<path class="st0" d="M22.5,11.3c0,0.1-0.1,0.2-0.1,0.2l0.1,0.1c0,0,0,0,0-0.1c-0.1,0-0.1,0-0.1,0S22.5,11.4,22.5,11.3z"/>
	<path class="st0" d="M24.3,8.3L24,8.1c0,0,0,0.1-0.1,0.1l0.3,0.1C24.2,8.3,24.2,8.3,24.3,8.3z"/>
	<polygon class="st0" points="32.1,8.6 33,8 33.9,8.6 33.5,7.6 34.4,6.9 33.3,6.9 33,6 32.6,6.9 31.6,6.9 32.4,7.6 	"/>
	<polygon class="st0" points="32.1,11.7 33,11.1 33.9,11.8 33.5,10.7 34.4,10.1 33.3,10.1 33,9.1 32.6,10.1 31.6,10.1 32.4,10.7 	
		"/>
	<polygon class="st0" points="30,10.1 29.6,9.1 29.3,10.1 28.3,10.1 29.1,10.7 28.7,11.7 29.6,11.1 30.5,11.8 30.2,10.7 31,10.1 	
		"/>
	<polygon class="st0" points="28.7,8.6 29.6,8 30.5,8.6 30.1,7.6 31,6.9 29.9,6.9 29.6,6 29.3,6.9 28.2,6.9 29,7.6 	"/>
	<polygon class="st0" points="19.7,8.6 20.5,8 21.4,8.6 21.1,7.6 21.9,6.9 20.9,6.9 20.5,6 20.2,6.9 19.2,6.9 20,7.6 	"/>
	<polygon class="st0" points="19.7,11.7 20.5,11.1 21.4,11.8 21.1,10.7 21.9,10.1 20.9,10.1 20.5,9.1 20.2,10.1 19.2,10.1 20,10.7 	
		"/>
	<polygon class="st0" points="16.3,11.7 17.2,11.1 18,11.8 17.7,10.7 18.6,10.1 17.5,10.1 17.2,9.1 16.8,10.1 15.8,10.1 16.6,10.7 	
		"/>
	<polygon class="st0" points="16.3,8.6 17.1,8 18,8.6 17.7,7.6 18.5,6.9 17.5,6.9 17.1,6 16.8,6.9 15.8,6.9 16.6,7.6 	"/>
	<path class="st0" d="M16,21.2c0,1.9,1.5,2.6,2.8,3.1l1.1,0.3c1.6,0.2,3.1,0.6,5.2,2.8c0,0,0,0,0,0c0,0,0,0,0,0
		c2.1-2.2,3.6-2.6,5.2-2.8l1.1-0.3c1.3-0.5,2.8-1.2,2.8-3.1v-8.7H16V21.2z M28.4,22.6c0.2-0.1,0.4-0.3,0.7-0.4v-0.8v-1.5V15
		l-0.5-0.2v-1.2h0.5h0.8h0h0.8h0.5v1.2L30.7,15v4.9v1.5v0.1c0.4-0.1,0.8-0.2,1.3-0.3v-2h1.3V21v1.2v0.1c0,0-1.3,0.1-2.5,0.6
		c-0.6,0.2-1.9,1-2.4,1.3V22.6z M23.3,22.9c0,0,0.3,0,0.7,0.1v-0.1v-1.2V21v-2.1v-1.4V15h-0.6v-1.4H24h1.6h2.5v0.9V15v0.8H27
		L26.7,15h-1.1v2.5h0.8l0.2-0.6h0.9v0.6v0.6v0v0.7v0.6h-0.9l-0.2-0.6h-0.8V21v1.9v0.5c0.3,0.1,0.5,0.3,0.5,0.3V25
		c0,0-1.1-0.5-1.5-0.6c-0.5-0.2-1.3-0.2-1.3-0.2V22.9z M17,14.9v-1.4h0.5h1.6v0l1.7,4.8V15h-0.5v-1.4h0.5h1.6h0.4V15h-0.4v8v0.9v0
		l-1.6-0.5l-1.7-5v0.3v2.6c0.4,0.1,0.6,0.3,0.6,0.3l0.1,1.5c0,0-1.1-0.5-1.6-0.6c-0.6-0.1-1.3-0.2-1.3-0.2L16.8,21c0,0,0.3,0,0.7,0
		v-2.3v-3.8H17z"/>
</g>
</svg>
