<?xml version="1.0" encoding="utf-8"?>
<!-- Generator: Adobe Illustrator 23.1.0, SVG Export Plug-In . SVG Version: 6.00 Build 0)  -->
<svg version="1.1" id="Ebene_1" xmlns="http://www.w3.org/2000/svg" xmlns:xlink="http://www.w3.org/1999/xlink" x="0px" y="0px"
	 viewBox="0 0 50 30" style="enable-background:new 0 0 50 30;" xml:space="preserve">
<style type="text/css">
	.st0{fill:#1D1926;}
</style>
<g>
	<path class="st0" d="M6.2,6.2c-3.8,0.4-5.7,2.7-5.7,5.4c0,2.2,1.6,4.3,4.7,4.9l3.7,0.7c1.3,0.3,2,0.6,2,1.3c0,0.6-0.5,1.1-2.3,1.1
		c-1.6,0-3.7-0.2-5-0.2C2.3,19.4,1,20,1,22.6c0,0.3,0.1,0.7,0.1,1c1.9,0.2,6,0.6,8.8,0.3c3.9-0.4,5.8-2.5,5.8-5.5
		c0-2.5-1.5-4.6-5.1-5.2L7,12.5c-1.1-0.2-1.8-0.5-1.8-1.1c0-0.6,0.7-1.1,2.5-1.1c1.8,0,3.3,0.2,4.3,0.2c1.3,0,2.6-0.5,2.6-3.1
		c0-0.3,0-0.7-0.1-1c-1.4-0.2-3.6-0.4-5.7-0.4C7.9,6.1,7,6.1,6.2,6.2 M28,8.2l-5.9,6.4l4.7,7.4c0.9,1.4,2,2,3.9,2
		c1.2,0,2.2-0.3,2.7-0.5L27.7,15l4-4.3L38.3,21l-4,8.5c0.4,0.2,1.2,0.5,2.3,0.5c1.8,0,2.7-0.6,3.4-2.2l9.5-21.2
		c-0.4-0.2-1.3-0.4-2-0.5c-1.2,0-2.9,0.2-3.9,2.7l-3.1,7.2l-6-9.8c-0.4-0.1-1.3-0.3-2-0.3C30.4,6,29.2,6.8,28,8.2 M17.1,3.2v20.7
		c0.3,0.1,0.7,0.1,1.1,0.1c3,0,3.7-0.9,3.7-2.5V0.1C21.5,0,21.1,0,20.7,0C17.7,0,17.1,1.6,17.1,3.2"/>
</g>
</svg>
