<?xml version="1.0" encoding="utf-8"?>
<!-- Generator: Adobe Illustrator 23.1.0, SVG Export Plug-In . SVG Version: 6.00 Build 0)  -->
<svg version="1.1" id="Ebene_1" xmlns="http://www.w3.org/2000/svg" xmlns:xlink="http://www.w3.org/1999/xlink" x="0px" y="0px"
	 viewBox="0 0 40 3" style="enable-background:new 0 0 40 3;" xml:space="preserve">
<g>
	<path d="M1.6,2.5c-0.6,0-1-0.4-1.1-1c0-0.5,0.5-1,1.1-1h36.8c0.6,0,1,0.4,1.1,1c0,0.5-0.5,1-1.1,1H1.6z"/>
	<path d="M38.4,1C38.7,1,39,1.2,39,1.5C39,1.8,38.7,2,38.4,2H1.6C1.3,2,1,1.8,1,1.5C1,1.2,1.3,1,1.6,1H38.4 M38.4,0H1.6
		C0.7,0,0,0.7,0,1.5C0,2.3,0.7,3,1.6,3h36.8C39.3,3,40,2.3,40,1.5C40,0.7,39.3,0,38.4,0L38.4,0z M40,1.4C40,1.5,40,1.5,40,1.4
		c0,0.1,0,0.1,0,0.2V1.4L40,1.4z M0,1.4v0.2C0,1.5,0,1.5,0,1.4C0,1.5,0,1.5,0,1.4L0,1.4z"/>
</g>
</svg>
