<?xml version="1.0" standalone="no"?>
<!DOCTYPE svg PUBLIC "-//W3C//DTD SVG 20010904//EN"
 "http://www.w3.org/TR/2001/REC-SVG-20010904/DTD/svg10.dtd">
<svg version="1.0" xmlns="http://www.w3.org/2000/svg"
 width="1528.000000pt" height="1528.000000pt" viewBox="0 0 1528.000000 1528.000000"
 preserveAspectRatio="xMidYMid meet">
<metadata>
Created by potrace 1.11, written by Peter Selinger 2001-2013
</metadata>
<g transform="translate(0.000000,1528.000000) scale(0.100000,-0.100000)"
fill="#000000" stroke="none">
<path d="M2478 11605 c-2 -3 -56 -7 -119 -10 -106 -4 -157 -9 -219 -20 -14 -2
-43 -7 -65 -10 -52 -7 -80 -13 -191 -40 -87 -22 -282 -89 -354 -122 -108 -49
-185 -87 -190 -93 -3 -4 -20 -13 -37 -21 -18 -8 -33 -17 -33 -21 0 -5 -5 -8
-10 -8 -9 0 -103 -58 -135 -83 -5 -4 -35 -26 -65 -48 -30 -22 -75 -56 -100
-77 -47 -38 -273 -262 -301 -299 -87 -111 -152 -199 -191 -262 -55 -88 -186
-349 -204 -406 -2 -5 -21 -62 -43 -125 -44 -131 -91 -334 -95 -412 0 -16 -3
-28 -6 -28 -19 0 -16 -496 4 -595 2 -11 7 -42 10 -68 6 -42 16 -100 30 -162
17 -80 79 -282 102 -332 7 -17 14 -34 14 -39 0 -13 133 -279 142 -282 4 -2 8
-9 8 -15 0 -7 18 -38 40 -70 22 -31 40 -59 40 -62 0 -8 94 -130 102 -133 5 -2
8 -7 8 -12 0 -22 216 -247 330 -343 52 -44 142 -111 200 -148 58 -38 110 -73
115 -77 21 -16 233 -120 300 -147 39 -15 79 -31 90 -35 22 -9 52 -19 60 -20 3
0 24 -8 47 -16 24 -9 50 -17 58 -19 8 -2 53 -13 100 -24 47 -11 103 -23 125
-26 22 -4 54 -9 70 -12 164 -30 506 -34 665 -8 14 2 43 7 65 10 67 10 186 36
260 56 39 11 77 22 86 24 40 9 254 97 344 142 300 149 588 383 808 658 62 77
212 309 238 370 5 11 13 27 18 35 10 16 55 112 56 120 1 3 9 23 19 45 56 128
125 374 142 505 3 25 7 52 10 62 24 83 23 534 -1 659 -2 9 -7 39 -11 66 -3 26
-8 57 -11 68 -2 11 -6 31 -9 45 -3 14 -10 43 -16 65 -5 22 -11 47 -13 55 -7
37 -86 261 -111 315 -15 33 -28 62 -29 65 -5 16 -59 126 -64 130 -3 3 -14 21
-25 40 -28 53 -161 252 -185 277 -12 12 -21 24 -21 27 0 17 -226 248 -320 327
-36 30 -67 56 -70 60 -3 3 -34 25 -70 50 -36 24 -67 47 -70 50 -22 24 -364
209 -388 209 -5 0 -23 7 -39 15 -72 36 -311 108 -428 130 -141 25 -230 36
-347 40 -54 2 -102 6 -106 9 -5 3 -11 3 -14 1z m53 -364 c7 4 17 5 22 2 4 -3
43 -7 85 -9 42 -3 88 -7 102 -11 14 -3 28 -6 33 -5 4 1 42 -5 85 -14 42 -9 87
-18 99 -20 12 -2 33 -8 45 -13 13 -5 28 -9 33 -10 91 -11 377 -142 529 -241
38 -25 76 -49 85 -55 9 -5 18 -12 21 -15 3 -3 37 -30 75 -61 146 -117 301
-285 399 -434 25 -39 51 -76 57 -83 18 -22 149 -286 149 -302 0 -9 4 -20 9
-25 9 -10 76 -221 85 -267 2 -13 11 -61 20 -108 38 -198 39 -532 1 -696 -2
-12 -7 -38 -11 -59 -3 -21 -10 -49 -15 -62 -5 -13 -7 -23 -4 -23 2 0 -3 -19
-11 -42 -9 -24 -18 -56 -21 -73 -2 -16 -9 -34 -14 -39 -5 -6 -9 -17 -9 -25 -1
-9 -9 -34 -20 -56 -11 -22 -19 -44 -20 -48 -1 -38 -191 -367 -256 -444 -11
-12 -30 -37 -44 -55 -37 -48 -197 -207 -255 -253 -27 -22 -57 -46 -65 -54 -35
-34 -243 -163 -336 -209 -88 -44 -244 -109 -277 -116 -7 -2 -19 -6 -27 -9 -43
-17 -196 -52 -270 -63 -19 -3 -41 -7 -48 -9 -17 -6 -201 -18 -277 -18 -72 0
-248 11 -290 19 -102 18 -234 48 -280 64 -30 10 -55 16 -55 12 0 -3 -5 -1 -12
6 -7 7 -21 12 -33 12 -12 0 -25 4 -31 8 -5 5 -36 19 -68 32 -79 31 -207 97
-279 143 -31 20 -61 37 -66 37 -5 0 -11 4 -13 8 -1 5 -25 23 -53 42 -27 18
-52 36 -55 40 -3 3 -25 21 -50 40 -67 50 -258 246 -313 320 -26 36 -53 72 -60
80 -22 28 -97 151 -97 160 0 4 -4 10 -8 12 -9 3 -102 192 -102 205 0 5 -7 21
-15 37 -19 36 -69 197 -91 291 -17 75 -19 86 -29 155 -3 25 -9 61 -12 80 -9
62 -4 465 7 465 1 0 3 14 5 30 9 84 62 304 77 323 6 6 8 12 4 12 -3 0 3 21 13
48 24 63 31 82 30 85 -2 5 152 302 159 307 4 3 20 25 36 50 77 120 246 311
366 415 59 50 158 123 228 167 37 24 76 49 87 56 35 22 130 66 138 64 4 -1 7
1 7 6 0 7 49 32 73 36 6 1 28 9 47 18 50 22 219 76 260 83 46 9 65 13 65 15 0
1 11 3 25 6 117 19 198 27 272 28 38 1 68 4 68 7 0 4 18 3 39 -1 22 -4 45 -4
52 1z"/>
<path d="M1658 10525 c-2 -2 -30 -6 -63 -9 -33 -3 -70 -8 -82 -11 -13 -3 -31
-7 -41 -9 -86 -19 -221 -98 -301 -175 -51 -49 -131 -164 -131 -188 0 -7 -4
-13 -10 -13 -5 0 -10 -8 -10 -18 0 -10 -5 -23 -12 -30 -7 -7 -9 -12 -5 -12 3
0 2 -12 -4 -27 -20 -51 -24 -87 -24 -213 0 -143 21 -226 80 -325 19 -32 35
-60 35 -63 0 -3 33 -37 73 -76 139 -136 280 -196 472 -200 305 -7 576 183 668
469 34 104 41 230 20 335 -14 71 -15 72 -31 113 -7 16 -12 35 -12 43 0 8 -5
14 -11 14 -5 0 -7 5 -4 10 3 6 1 10 -4 10 -6 0 -11 6 -11 13 0 14 -106 158
-124 169 -6 3 -27 20 -46 37 -19 17 -43 33 -52 37 -10 3 -18 10 -18 15 0 6 -4
7 -10 4 -5 -3 -10 -2 -10 4 0 5 -35 23 -79 39 -68 27 -115 38 -196 48 -11 1
-20 3 -20 4 0 4 -34 8 -37 5z m52 -373 c14 -2 45 -13 70 -25 116 -55 179 -161
176 -294 -3 -88 -33 -158 -95 -216 -72 -68 -130 -92 -221 -91 -127 1 -236 69
-290 180 -35 71 -35 200 -1 270 52 104 164 180 263 179 27 0 48 4 48 8 0 5 6
5 13 0 6 -4 23 -9 37 -11z"/>
<path d="M2702 10510 c-16 -10 -42 -35 -58 -55 -23 -31 -28 -47 -28 -94 1 -99
0 -97 230 -327 107 -107 194 -197 194 -201 0 -4 -87 -96 -194 -203 -107 -107
-204 -213 -215 -235 -58 -110 19 -240 147 -249 83 -6 110 14 320 224 108 109
202 200 209 202 6 2 101 -85 210 -193 109 -108 213 -204 230 -213 75 -38 157
-23 209 38 52 60 62 117 34 190 -5 14 -102 118 -215 231 l-207 207 199 199
c247 247 271 291 224 396 -29 63 -88 98 -166 97 -53 -1 -67 -5 -115 -39 -30
-21 -125 -108 -211 -194 -86 -86 -166 -164 -177 -174 -20 -18 -23 -16 -216
177 -108 108 -213 204 -234 215 -48 24 -131 25 -170 1z"/>
<path d="M2446 8698 c-9 -5 -16 -6 -16 -3 0 3 -12 -1 -27 -9 -43 -22 -82 -71
-95 -120 l-12 -45 -100 2 -100 2 -7 32 c-6 32 -30 76 -56 101 -7 7 -13 11 -13
7 0 -4 -7 1 -16 9 -8 9 -21 16 -27 17 -7 0 -27 2 -45 3 -73 5 -153 -56 -176
-134 l-13 -45 -59 -2 c-32 0 -75 -2 -94 -2 -43 -1 -108 -41 -137 -84 -43 -63
-33 -160 22 -217 36 -37 103 -58 185 -58 38 0 72 -2 78 -6 5 -3 12 -20 16 -37
14 -74 93 -133 173 -132 73 1 155 70 169 141 7 35 2 34 122 34 79 1 84 -1 89
-35 6 -38 25 -71 59 -100 66 -56 160 -52 229 11 25 22 55 75 55 96 0 24 19 28
122 29 90 1 92 1 98 -24 28 -101 91 -156 182 -157 48 0 65 5 98 29 39 28 68
71 75 111 6 31 8 31 98 34 45 1 83 3 85 4 2 3 16 7 30 9 14 2 80 66 93 91 46
88 16 175 -79 230 -56 32 -158 55 -168 38 -3 -4 -13 -4 -22 1 -9 5 -21 10 -27
10 -5 1 -13 12 -17 26 -11 43 -48 93 -84 115 -61 38 -154 30 -207 -18 -25 -22
-65 -103 -60 -119 3 -9 -11 -13 -49 -13 -29 0 -62 0 -73 0 -73 -1 -90 5 -92
32 -4 61 -64 130 -124 144 -50 11 -66 12 -83 2z"/>
<path d="M7190 10812 c-67 -6 -196 -52 -257 -91 -115 -74 -195 -185 -234 -324
-31 -110 -33 -344 -5 -452 55 -208 194 -383 401 -504 61 -35 134 -79 162 -98
29 -18 56 -33 60 -33 4 0 28 -22 53 -49 92 -99 117 -185 109 -384 -1 -31 1
-60 4 -63 3 -4 2 -15 -4 -25 -5 -11 -8 -19 -5 -19 11 0 -18 -77 -37 -99 -64
-69 -254 -75 -319 -10 -44 44 -52 89 -54 299 -1 107 -2 198 -3 202 -1 4 -90 6
-200 6 l-198 -1 3 -216 c3 -237 4 -247 33 -341 37 -118 117 -227 221 -301 56
-39 172 -85 189 -75 5 4 12 3 15 -2 5 -8 50 -13 141 -16 35 -1 104 6 170 18
30 6 74 23 134 54 56 28 191 154 191 177 0 7 3 15 8 17 26 12 76 151 88 249
14 109 8 364 -11 447 -3 12 -7 30 -9 40 -13 56 -84 202 -98 202 -4 0 -8 6 -8
13 0 7 -32 48 -71 91 -74 80 -166 148 -279 205 -61 32 -176 104 -211 133 -21
18 -73 97 -87 133 -20 51 -24 76 -24 177 -1 151 38 223 125 235 52 7 150 7
179 0 47 -12 89 -65 104 -132 3 -11 5 -84 5 -162 l0 -143 37 -1 c108 -2 357 3
361 7 6 5 3 265 -3 319 -2 22 -9 55 -14 73 -6 17 -9 32 -7 32 7 0 -47 123 -72
163 -64 103 -217 215 -316 231 -15 3 -36 7 -47 11 -22 7 -169 12 -220 7z"/>
<path d="M14469 10808 c-11 -4 -25 -6 -30 -2 -5 3 -9 2 -9 -3 0 -4 -14 -9 -31
-10 -18 -1 -42 -9 -55 -18 -13 -8 -24 -13 -24 -10 0 4 -15 -2 -32 -12 -173
-96 -271 -238 -303 -438 -11 -63 -12 -218 -3 -237 5 -10 5 -18 0 -18 -10 0 8
-96 33 -171 17 -51 46 -111 66 -135 5 -6 6 -14 2 -17 -3 -4 -2 -7 3 -7 5 0 18
-15 28 -32 20 -35 29 -45 103 -122 43 -44 166 -133 218 -157 11 -6 29 -15 40
-22 11 -7 52 -32 92 -55 40 -24 91 -64 114 -89 41 -44 97 -153 99 -189 0 -11
1 -85 2 -165 1 -134 -1 -150 -22 -194 -23 -47 -62 -75 -115 -81 -11 -2 -35 -5
-53 -7 -61 -7 -133 10 -165 40 -53 51 -59 83 -59 325 l0 186 -199 1 c-199 0
-199 0 -199 -22 -3 -124 0 -364 5 -407 25 -235 187 -440 395 -499 120 -35 289
-32 415 7 119 37 255 155 312 272 55 114 66 175 69 381 2 260 -22 367 -122
520 -83 127 -193 221 -364 311 -261 138 -323 227 -316 451 5 151 15 175 85
209 52 25 189 30 231 8 78 -40 91 -77 94 -268 2 -83 5 -155 8 -158 6 -5 44 -6
269 -5 l126 1 -2 168 c-2 119 -8 187 -20 237 -18 71 -57 164 -85 199 -42 54
-110 122 -148 148 -38 26 -148 76 -170 77 -4 0 -27 4 -52 7 -65 10 -206 11
-231 2z"/>
<path d="M10148 10804 c-2 -1 -21 -5 -43 -8 -194 -30 -364 -171 -430 -356 -17
-47 -21 -63 -35 -145 -5 -27 -9 -387 -8 -800 0 -704 1 -755 19 -829 21 -88 66
-186 105 -231 14 -17 29 -35 32 -40 27 -42 174 -137 235 -152 247 -61 477 -16
620 122 52 50 124 151 119 167 -1 4 2 8 7 8 10 0 48 129 57 195 4 28 6 385 6
795 0 664 -2 753 -17 815 -9 39 -18 75 -19 81 -9 48 -77 154 -140 219 -110
110 -222 155 -403 160 -57 1 -104 1 -105 -1z m214 -421 c52 -30 71 -83 79
-218 1 -5 0 -21 -1 -35 -1 -14 0 -34 3 -45 2 -11 1 -34 -4 -52 -4 -18 -3 -35
2 -38 4 -3 5 -16 1 -28 -4 -12 -6 -35 -5 -52 2 -16 3 -48 2 -70 -1 -53 -1 -57
4 -80 2 -11 1 -34 -4 -52 -4 -18 -3 -35 2 -38 4 -3 5 -16 1 -28 -4 -12 -6 -35
-5 -52 2 -16 3 -48 2 -70 -1 -53 -1 -57 4 -80 2 -11 1 -34 -4 -52 -4 -18 -3
-35 2 -38 4 -3 5 -16 1 -28 -4 -12 -6 -35 -5 -52 2 -16 3 -48 2 -70 -1 -53 -1
-57 4 -80 2 -11 1 -34 -4 -52 -4 -18 -3 -35 2 -38 4 -3 5 -16 1 -28 -4 -12 -6
-35 -5 -52 2 -16 3 -54 3 -84 -1 -202 -47 -253 -226 -253 -101 -1 -156 39
-183 133 -3 7 -5 343 -6 744 -1 784 0 815 48 863 51 50 220 65 289 25z"/>
<path d="M8159 10765 c0 -11 -1 -35 -2 -53 -1 -17 0 -32 3 -32 3 0 5 -18 5
-40 0 -22 -2 -40 -5 -40 -7 0 -4 -69 3 -76 3 -3 2 -18 -3 -32 -4 -15 -3 -37 1
-50 5 -12 5 -22 1 -22 -7 0 -5 -106 3 -127 2 -7 1 -13 -3 -13 -8 0 -8 -68 1
-76 3 -3 2 -16 -2 -28 -5 -11 -5 -30 -1 -41 4 -11 5 -24 2 -29 -7 -12 -9 -66
-2 -66 3 0 5 -18 5 -40 0 -22 -2 -40 -5 -40 -7 0 -4 -69 3 -76 3 -3 2 -18 -3
-32 -4 -15 -3 -37 1 -50 5 -12 5 -22 1 -22 -7 0 -5 -106 3 -127 2 -7 1 -13 -3
-13 -8 0 -8 -67 0 -75 3 -3 2 -22 -2 -43 -3 -20 -3 -49 1 -65 4 -15 4 -27 1
-27 -4 0 -7 -25 -7 -55 0 -30 3 -55 7 -55 4 0 3 -13 -2 -30 -5 -16 -6 -30 -2
-30 4 0 6 -21 5 -47 -1 -27 -2 -48 -3 -48 -5 0 -4 -139 2 -148 3 -6 2 -19 -3
-28 -6 -11 -5 -20 1 -24 6 -4 7 -13 1 -24 -5 -9 -6 -23 -1 -31 4 -7 6 -18 4
-24 -8 -22 -9 -106 -1 -106 4 0 6 -4 3 -9 -6 -9 -10 -126 -6 -146 1 -5 1 -14
0 -20 -5 -22 -2 -114 5 -124 3 -6 3 -11 -2 -11 -4 0 -8 -25 -8 -55 0 -30 3
-55 7 -55 4 0 3 -11 -2 -25 -6 -15 -6 -26 0 -30 7 -4 7 -13 0 -25 -17 -32 -6
-33 328 -31 l77 1 -3 47 c-1 27 -2 66 -2 88 1 22 1 65 0 95 0 30 -1 60 -1 65
0 6 1 30 2 55 0 25 0 50 -1 55 -1 6 -1 33 -1 60 1 28 1 88 1 135 -1 126 -1
129 1 207 2 40 1 75 -2 77 -2 2 -3 31 -1 63 l4 58 136 0 c75 0 143 4 150 9 6
4 12 6 12 3 0 -3 28 1 62 9 65 15 177 67 217 100 66 54 160 174 161 205 0 8 4
19 10 25 17 17 52 183 51 244 0 15 0 196 1 215 0 34 -12 243 -15 255 -2 8 -7
29 -11 45 -11 43 -30 86 -70 159 -28 51 -106 128 -171 170 -71 46 -131 68
-220 81 -11 2 -20 4 -20 5 0 1 -156 3 -347 4 -343 2 -348 1 -349 -19z m711
-405 c40 -14 73 -58 89 -116 13 -49 11 -428 -2 -469 -31 -96 -74 -115 -257
-119 -134 -3 -139 -2 -139 38 0 17 -2 43 -4 58 -2 14 -1 32 3 38 4 7 4 27 0
46 -4 19 -5 34 -1 34 3 0 5 42 3 92 -3 93 -3 137 -1 161 1 6 1 26 0 42 -3 80
-1 197 4 204 8 13 266 6 305 -9z"/>
<path d="M11155 10780 c-1 -3 -3 -573 -3 -1268 l0 -1262 200 2 201 3 0 502
c-1 364 2 503 11 506 6 2 47 3 90 2 88 -1 85 1 100 -85 2 -14 21 -106 41 -204
20 -99 38 -188 40 -199 3 -10 7 -26 9 -35 3 -9 8 -35 11 -57 3 -22 9 -55 15
-74 5 -19 8 -37 5 -39 -2 -3 0 -13 6 -24 6 -10 12 -33 14 -51 3 -28 13 -78 28
-143 3 -12 8 -39 11 -60 4 -21 8 -39 10 -41 3 -4 222 -6 352 -4 l52 1 -4 33
c-1 17 -3 32 -4 32 -1 0 -3 7 -5 15 -3 16 -44 202 -51 235 -3 11 -7 31 -9 45
-2 14 -7 36 -10 50 -3 14 -8 36 -11 50 -3 14 -9 41 -14 60 -5 19 -12 51 -15
70 -4 31 -33 162 -64 300 -6 25 -13 59 -16 75 -2 17 -9 45 -14 63 -5 17 -8 32
-6 32 3 0 0 11 -5 26 -9 23 -4 31 58 93 95 96 140 188 167 346 5 33 6 434 1
501 -2 23 -9 50 -15 61 -5 11 -8 23 -5 25 16 17 -77 184 -137 248 -90 93 -198
149 -319 166 -61 8 -710 12 -715 4z m706 -409 c46 -15 73 -45 92 -101 22 -66
19 -472 -5 -515 -39 -72 -92 -91 -259 -90 -135 0 -125 -5 -129 60 -2 18 -1
109 0 158 0 18 1 44 1 121 0 28 1 52 3 54 2 2 0 16 -4 32 -4 16 -6 31 -2 34 3
3 4 39 3 78 -1 40 -2 80 -1 88 0 8 1 29 1 45 0 17 2 35 4 41 4 14 249 11 296
-5z"/>
<path d="M12561 10718 c1 -36 -2 -71 -5 -77 -4 -5 -3 -12 2 -14 4 -3 5 -36 2
-74 -3 -38 -2 -83 1 -99 3 -16 2 -36 -3 -46 -5 -10 -3 -18 5 -20 6 -3 98 -4
204 -4 l192 1 1 -220 c1 -121 1 -227 1 -235 0 -8 0 -224 0 -480 0 -256 0 -472
0 -480 0 -8 0 -166 -1 -350 0 -184 -1 -344 0 -355 0 -21 -8 -21 360 -16 l45 1
-2 42 c-1 24 -2 54 -3 68 0 14 0 57 1 97 0 39 -1 75 -4 80 -3 5 -2 15 2 22 5
7 5 28 1 47 -4 19 -4 34 0 34 5 0 5 13 0 29 -4 16 -6 32 -3 35 3 2 4 37 4 75
-1 39 -2 88 -1 109 0 20 0 75 -1 122 0 47 0 96 0 110 0 14 1 57 1 95 1 39 1
75 0 80 -1 6 -1 33 -1 60 1 28 1 88 1 135 -1 123 -1 128 0 205 1 39 1 75 0 80
-1 6 -1 33 -1 60 1 28 1 88 1 135 -1 47 -1 99 -1 115 1 17 0 44 0 60 0 17 0
37 0 45 1 8 1 56 2 105 l0 90 202 0 202 0 0 200 0 200 -602 0 -603 0 1 -67z"/>
<path d="M6771 7000 c-11 -8 -16 -77 -8 -115 2 -11 1 -34 -4 -52 -4 -18 -3
-35 2 -38 4 -3 5 -16 1 -28 -4 -12 -6 -35 -5 -52 2 -27 3 -47 2 -112 -1 -10 1
-27 4 -38 2 -11 1 -34 -4 -52 -4 -18 -3 -35 2 -38 4 -3 5 -16 1 -28 -7 -21 -7
-40 1 -112 2 -16 0 -45 -4 -63 -4 -17 -3 -34 2 -37 4 -3 5 -16 1 -28 -8 -23
-6 -96 3 -105 2 -3 0 -11 -6 -19 -8 -9 -8 -13 0 -13 7 0 8 -8 2 -22 -5 -13 -5
-32 -1 -43 4 -11 4 -29 1 -40 -8 -22 -5 -94 4 -103 2 -3 0 -11 -6 -19 -8 -9
-8 -13 0 -13 7 0 8 -8 2 -22 -5 -13 -5 -32 -1 -43 4 -11 4 -29 0 -40 -4 -11
-4 -29 0 -40 4 -11 4 -34 -1 -52 -4 -18 -3 -35 2 -38 4 -3 5 -16 1 -28 -8 -23
-6 -96 3 -105 2 -3 0 -11 -6 -19 -8 -9 -8 -13 0 -13 7 0 8 -8 2 -22 -5 -13 -5
-32 -1 -43 4 -11 4 -29 1 -40 -8 -22 -5 -94 4 -103 2 -3 0 -11 -6 -19 -8 -9
-8 -13 0 -13 7 0 8 -8 2 -22 -5 -13 -5 -32 -1 -43 4 -11 5 -24 3 -28 -6 -10
-6 -103 0 -132 2 -11 1 -34 -4 -52 -4 -18 -3 -35 2 -38 4 -3 5 -16 1 -28 -4
-12 -6 -35 -5 -52 2 -27 3 -47 2 -112 -1 -10 1 -27 4 -38 2 -11 1 -34 -4 -52
-4 -18 -3 -35 2 -38 4 -3 5 -16 0 -28 -4 -12 -5 -31 -2 -42 6 -21 11 -21 361
-19 195 1 365 5 378 8 12 3 31 8 43 11 188 41 352 205 395 395 4 19 9 42 11
50 13 52 18 371 7 475 -13 127 -65 236 -150 317 -40 38 -41 41 -25 58 49 55
71 94 95 169 25 74 29 124 28 336 0 211 -7 265 -47 375 -52 146 -203 281 -355
316 -19 4 -42 9 -50 11 -31 7 -210 14 -330 13 -69 0 -136 -1 -150 0 -117 4
-193 4 -199 0z m564 -404 c129 -9 170 -44 180 -156 2 -28 7 -55 10 -60 3 -5 2
-11 -3 -14 -9 -5 -8 -64 2 -73 3 -3 1 -14 -4 -24 -6 -11 -6 -20 -1 -24 6 -3 6
-17 1 -35 -5 -19 -5 -30 1 -30 6 0 7 -4 4 -10 -3 -5 -7 -34 -9 -64 -2 -30 -12
-72 -23 -93 -31 -59 -69 -76 -190 -82 -57 -3 -111 -4 -119 -1 -14 5 -16 45
-15 325 0 176 0 325 1 332 0 10 58 22 85 16 6 -1 42 -4 80 -7z m105 -1078 c51
-15 63 -24 86 -64 22 -37 27 -60 30 -132 18 -420 0 -453 -250 -457 -72 -1
-136 0 -142 2 -9 3 -12 94 -11 326 0 177 1 325 3 328 4 8 260 5 284 -3z"/>
<path d="M10775 6966 c-9 -49 -13 -72 -21 -106 -3 -14 -7 -34 -9 -45 -2 -11
-4 -20 -5 -20 -1 0 -4 -13 -6 -30 -3 -16 -14 -73 -24 -125 -10 -52 -21 -106
-24 -120 -3 -14 -8 -36 -11 -50 -3 -14 -8 -38 -11 -55 -3 -16 -9 -48 -14 -70
-5 -22 -11 -53 -14 -70 -7 -34 -8 -42 -36 -180 -29 -142 -30 -147 -35 -180 -3
-16 -8 -37 -10 -45 -2 -8 -7 -28 -10 -45 -8 -47 -14 -75 -19 -93 -3 -9 -8 -33
-10 -52 -3 -19 -12 -66 -21 -105 -9 -38 -18 -83 -20 -100 -4 -29 -6 -41 -21
-110 -4 -16 -8 -39 -10 -50 -2 -11 -12 -60 -23 -110 -10 -49 -17 -93 -14 -97
2 -5 -1 -8 -7 -8 -6 0 -9 -3 -7 -7 3 -5 -6 -60 -19 -123 -13 -63 -26 -126 -29
-140 -3 -14 -7 -36 -10 -50 -29 -144 -57 -288 -58 -300 -2 -13 27 -15 197 -15
190 0 199 1 207 20 7 17 15 59 34 175 2 14 6 34 8 45 3 11 8 40 12 65 12 73
14 82 20 89 8 7 433 8 446 1 8 -6 24 -73 33 -145 2 -11 6 -31 9 -45 4 -14 9
-41 11 -60 10 -70 24 -131 31 -138 9 -9 415 -10 409 -1 -2 4 -6 22 -9 40 -2
19 -7 45 -10 59 -2 14 -7 34 -9 45 -20 98 -55 276 -59 302 -3 17 -7 36 -10 40
-3 5 -8 27 -11 48 -3 22 -10 60 -15 85 -5 25 -12 59 -15 75 -4 17 -9 41 -12
55 -3 14 -8 36 -10 50 -3 14 -7 37 -10 52 -3 15 -5 30 -5 33 0 2 -4 19 -9 36
-5 18 -12 48 -15 68 -3 20 -8 48 -11 61 -3 14 -7 36 -10 50 -2 14 -7 36 -10
50 -4 14 -8 34 -9 45 -2 11 -6 34 -10 50 -9 41 -26 125 -30 152 -2 11 -6 29
-9 40 -3 10 -8 36 -12 58 -3 22 -8 43 -9 46 -2 3 -9 34 -15 70 -16 89 -18 101
-25 129 -3 14 -8 38 -10 54 -2 15 -7 35 -9 45 -7 22 -18 81 -21 106 -1 11 -4
29 -8 40 -3 11 -8 31 -11 45 -21 109 -27 142 -61 305 -15 72 -29 141 -31 155
-3 14 -6 30 -9 37 -3 9 -58 12 -204 11 l-200 0 -6 -42z m211 -847 c3 -19 7
-43 9 -54 2 -11 6 -35 8 -52 3 -18 10 -56 16 -85 6 -29 12 -69 15 -89 3 -20 8
-42 11 -50 3 -8 7 -32 9 -54 2 -22 7 -51 10 -65 6 -27 13 -64 22 -120 3 -19
12 -71 20 -115 9 -44 18 -100 21 -125 l5 -46 -157 1 -156 0 5 35 c3 19 12 76
21 125 15 86 21 118 29 175 4 23 40 225 51 280 3 13 7 42 10 65 3 22 8 47 10
55 2 8 6 33 10 55 16 112 22 125 31 64z"/>
<path d="M14098 7002 c-21 -2 -39 -6 -39 -10 -1 -4 -2 -573 -3 -1264 -1 -831
2 -1259 9 -1261 6 -2 96 -3 200 -3 l190 1 0 505 1 505 24 2 c57 5 101 5 107 0
3 -4 14 -2 24 4 16 8 21 5 29 -17 6 -14 12 -42 15 -61 2 -20 7 -43 9 -52 3 -9
8 -29 11 -46 5 -29 9 -51 20 -105 11 -54 19 -96 20 -110 1 -8 5 -22 8 -30 3
-8 8 -33 11 -55 2 -22 7 -47 10 -55 6 -18 18 -88 19 -112 1 -10 4 -18 7 -18 3
0 6 -8 7 -17 1 -29 11 -83 28 -163 6 -24 14 -66 19 -100 2 -8 6 -29 10 -45 l7
-30 202 0 c171 0 202 3 201 15 -1 8 -9 51 -18 95 -9 44 -18 91 -21 105 -3 14
-8 39 -12 55 -4 17 -7 35 -8 40 -2 18 -16 89 -36 182 -11 50 -23 106 -25 125
-7 45 -10 61 -28 148 -63 302 -74 370 -59 370 9 0 73 60 109 102 27 32 79 140
93 194 19 71 25 153 25 344 -1 191 -6 271 -23 328 -5 17 -8 32 -5 32 3 0 -1
10 -8 23 -6 12 -13 27 -14 32 -2 14 -58 108 -80 135 -104 126 -245 196 -418
206 -91 5 -569 10 -618 6z m557 -403 c44 -1 91 -7 105 -11 41 -15 77 -57 91
-106 14 -50 18 -382 6 -462 -14 -93 -66 -129 -194 -136 -48 -3 -94 -7 -100 -9
-7 -2 -13 -1 -13 3 0 4 -20 6 -44 4 -35 -3 -44 -1 -47 15 -3 10 -4 171 -4 358
l0 340 55 5 c30 3 57 5 60 4 3 -1 41 -3 85 -5z"/>
<path d="M318 6848 c-21 -5 -38 -14 -38 -19 0 -5 -6 -9 -14 -9 -22 0 -72 -66
-97 -127 -12 -29 -27 -53 -34 -53 -6 0 -26 -16 -44 -36 -108 -118 -72 -291 76
-354 41 -19 120 -21 173 -6 21 6 55 -9 184 -83 87 -50 162 -91 167 -91 5 0 9
-4 9 -9 0 -5 8 -11 18 -14 9 -4 36 -17 58 -31 73 -43 288 -168 327 -190 21
-12 117 -67 215 -124 97 -56 236 -136 307 -177 72 -41 135 -78 140 -82 6 -4
30 -19 55 -32 25 -14 77 -44 117 -68 39 -24 78 -43 85 -43 13 -1 -41 -50 -54
-50 -4 0 -38 -18 -74 -41 -37 -22 -77 -45 -88 -50 -12 -5 -34 -18 -51 -29 -16
-11 -38 -23 -47 -26 -10 -4 -18 -10 -18 -15 0 -5 -4 -9 -8 -9 -5 0 -50 -24
-101 -52 -115 -66 -62 -36 -434 -252 -81 -47 -149 -86 -152 -86 -3 0 -29 -16
-59 -35 -30 -19 -60 -35 -66 -35 -5 0 -10 -4 -10 -8 0 -5 -16 -14 -35 -22 -19
-8 -35 -16 -35 -19 0 -3 -18 -15 -40 -25 -22 -11 -40 -23 -40 -28 0 -4 -3 -7
-7 -6 -8 3 -119 -59 -251 -140 -72 -44 -74 -44 -110 -31 -79 30 -197 5 -253
-53 -79 -83 -79 -220 0 -310 16 -19 33 -52 37 -73 23 -126 103 -196 225 -197
99 -2 177 62 215 174 10 32 22 49 37 54 12 3 44 21 71 38 27 17 51 29 54 28 2
-2 8 0 11 5 3 6 31 23 61 40 30 17 71 40 90 51 19 12 42 25 50 29 8 4 48 26
88 50 41 24 78 43 83 43 5 0 9 5 9 10 0 6 5 10 10 10 6 0 54 25 108 56 107 63
116 68 252 145 52 29 101 59 108 66 7 7 22 13 32 13 10 0 20 4 22 8 2 7 185
114 343 202 22 12 45 26 50 30 6 4 35 21 65 37 30 17 126 71 213 121 166 96
164 95 211 59 12 -9 260 -152 346 -200 30 -17 75 -43 100 -58 25 -15 72 -42
105 -60 33 -17 62 -34 65 -38 5 -6 51 -32 125 -70 16 -9 35 -21 41 -27 7 -6
26 -17 43 -24 17 -7 31 -17 31 -23 0 -6 3 -8 6 -4 3 3 24 -5 46 -19 22 -14 54
-33 71 -43 18 -10 118 -68 222 -128 105 -61 206 -120 225 -130 65 -37 165 -95
190 -111 14 -9 27 -15 30 -15 3 0 24 -12 47 -28 23 -16 44 -29 47 -29 3 0 27
-13 54 -30 32 -20 48 -36 49 -52 6 -70 74 -164 138 -188 22 -8 98 -23 120 -22
45 0 165 86 165 118 0 8 4 14 9 14 7 0 20 43 25 81 1 3 16 19 34 34 50 42 76
100 76 170 0 93 -39 159 -119 202 -36 20 -150 26 -175 11 -20 -13 -80 6 -80
25 0 6 -3 7 -6 4 -4 -4 -19 2 -34 13 -16 11 -31 20 -34 20 -5 0 -126 71 -186
109 -14 8 -28 14 -32 13 -5 -1 -8 3 -8 8 0 6 -4 10 -9 10 -5 0 -42 19 -83 43
-40 24 -93 55 -118 69 -25 14 -90 51 -145 83 -55 32 -113 66 -130 75 -16 10
-74 43 -127 74 -53 31 -100 56 -103 56 -3 0 -15 9 -27 20 -12 10 -24 17 -28
15 -4 -3 -13 2 -20 10 -7 8 -16 15 -21 15 -5 0 -26 11 -47 23 -20 13 -57 35
-82 49 -43 24 -161 92 -314 181 l-69 39 34 21 c19 12 36 24 39 27 3 3 21 13
40 23 68 36 95 52 108 65 8 7 17 10 22 7 5 -3 10 -1 12 3 1 5 41 31 88 57 47
27 150 87 230 133 80 47 165 96 190 110 25 13 50 28 55 32 6 4 26 17 45 27 19
11 150 87 290 168 140 81 275 159 300 173 25 14 57 33 72 43 14 11 29 19 32
19 3 0 28 13 56 30 27 16 50 26 50 21 0 -12 45 -23 103 -26 171 -8 286 165
211 318 -13 26 -35 57 -48 70 -14 12 -28 33 -30 47 -18 94 -57 149 -130 185
-95 46 -196 28 -264 -49 -34 -39 -65 -103 -57 -117 6 -8 -31 -34 -115 -81 -25
-14 -136 -77 -247 -141 -111 -65 -206 -117 -212 -117 -5 0 -11 -4 -13 -8 -3
-7 -120 -76 -190 -111 -16 -7 -28 -17 -28 -22 0 -5 -6 -9 -13 -9 -11 0 -166
-86 -217 -120 -8 -6 -22 -13 -30 -17 -8 -4 -78 -44 -156 -88 -77 -45 -147 -85
-155 -88 -8 -4 -36 -21 -64 -37 -27 -17 -61 -36 -75 -43 -14 -6 -27 -14 -30
-17 -5 -5 -53 -33 -281 -162 -13 -7 -26 -15 -29 -18 -18 -18 -54 -29 -75 -24
-14 3 -25 9 -25 13 0 4 -12 12 -27 19 -16 6 -41 20 -58 30 -70 44 -121 73
-137 79 -10 3 -18 9 -18 14 0 5 -5 9 -11 9 -6 0 -56 27 -111 60 -54 33 -101
60 -103 60 -3 0 -33 17 -67 38 -35 21 -83 50 -108 64 -122 69 -397 229 -410
238 -8 6 -23 13 -32 16 -10 4 -18 10 -18 15 0 5 -4 9 -10 9 -5 0 -44 20 -86
45 -41 25 -78 45 -81 45 -2 0 -36 20 -74 45 -38 24 -69 42 -69 38 0 -3 -8 1
-17 9 -10 9 -38 27 -63 40 -40 22 -130 74 -178 103 -9 6 -47 27 -83 48 -64 36
-66 39 -79 93 -7 30 -25 70 -39 89 -25 32 -89 76 -121 82 -46 10 -89 10 -122
1z"/>
</g>
</svg>
